<?xml version="1.0" encoding="utf-8"?>
<!-- Generator: Adobe Illustrator 26.5.0, SVG Export Plug-In . SVG Version: 6.00 Build 0)  -->
<svg version="1.1" id="Layer_1" xmlns="http://www.w3.org/2000/svg" xmlns:xlink="http://www.w3.org/1999/xlink" x="0px" y="0px"
	 viewBox="0 0 442.98 27.23" style="enable-background:new 0 0 442.98 27.23;" xml:space="preserve">
<style type="text/css">
	.st0{fill:#747474;}
</style>
<g>
	<path class="st0" d="M5.62,15.66v10.67H0V0.9h22.69v4.84H5.62v5.24h16.29v4.68H5.62z"/>
	<path class="st0" d="M47.53,26.33H24.84V0.9h22.69v4.84H30.46v4.84h16.29v4.71H30.46v6.18h17.07V26.33z"/>
	<path class="st0" d="M72.06,20.4H57.7l-2.65,5.93h-5.71L60.89,0.9h8.02l11.61,25.43h-5.8L72.06,20.4z M69.94,15.69l-5.05-11.3
		l-5.06,11.3H69.94z"/>
	<path class="st0" d="M90.79,6.05v20.28H85.2V6.05H74.5V0.9h26.96v5.15H90.79z"/>
	<path class="st0" d="M131.98,0.9v10.45c0,10.64-4.03,15.13-14.14,15.13c-10.02,0-14.1-4.28-14.1-15.13V0.9h5.62v10.83
		c0,6.8,2.56,9.58,8.43,9.58c5.8,0,8.61-2.62,8.61-9.58V0.9H131.98z"/>
	<path class="st0" d="M147.65,16.34h-7.71v9.99h-5.62V0.9h13.54c8.55,0,11.45,2.71,11.45,7.58v0.38c0,3.49-1.65,5.93-5.99,6.93
		l6.4,10.55h-6.24L147.65,16.34z M139.94,5.67v6.02h8.3c3.81,0,5.43-0.59,5.43-2.96V8.61c0-2.37-1.62-2.93-5.43-2.93H139.94z"/>
	<path class="st0" d="M184.32,26.33h-22.69V0.9h22.69v4.84h-17.07v4.84h16.29v4.71h-16.29v6.18h17.07V26.33z"/>
	<path class="st0" d="M186.6,0.9h13.73c11.51,0,15.6,4.87,15.6,12.45v0.62c0,7.52-4.09,12.36-15.6,12.36H186.6V0.9z M192.22,5.98
		v15.29h7.8c6.58,0,10.3-1.81,10.3-7.46v-0.28c0-5.68-3.71-7.55-10.3-7.55H192.22z"/>
	<path class="st0" d="M232.41,18.31v8.02h-5.62V0.9h14.51c8.08,0,11.23,3.5,11.23,8.58v0.37c0,4.99-3.18,8.46-11.39,8.46H232.41z
		 M232.41,5.89v7.74h8.42c4.03,0,5.87-1.03,5.87-3.84V9.7c0-2.78-1.84-3.81-5.87-3.81H232.41z"/>
	<path class="st0" d="M268.05,16.34h-7.71v9.99h-5.62V0.9h13.54c8.55,0,11.45,2.71,11.45,7.58v0.38c0,3.49-1.65,5.93-5.99,6.93
		l6.4,10.55h-6.24L268.05,16.34z M260.35,5.67v6.02h8.3c3.81,0,5.43-0.59,5.43-2.96V8.61c0-2.37-1.62-2.93-5.43-2.93H260.35z"/>
	<path class="st0" d="M297.42,26.49c-11.33,0-16.04-4.68-16.04-12.64v-0.47c0-7.96,4.71-12.64,16.04-12.64
		c11.23,0,15.98,4.68,15.98,12.64v0.47C313.4,21.81,308.66,26.49,297.42,26.49z M297.39,5.89c-7.21,0-10.39,2-10.39,7.64v0.16
		c0,5.65,3.18,7.65,10.39,7.65c7.21,0,10.36-2,10.36-7.65v-0.16C307.75,7.89,304.6,5.89,297.39,5.89z"/>
	<path class="st0" d="M313.15,21.21h2.15c3.9,0,6.12-2.06,6.12-6.99V0.9h5.62v14.29c0,8.39-4.18,11.14-10.8,11.14h-3.09V21.21z"/>
	<path class="st0" d="M352.07,26.33h-22.69V0.9h22.69v4.84H335v4.84h16.29v4.71H335v6.18h17.07V26.33z"/>
	<path class="st0" d="M385.62,14.53v0.09c0,7.27-5.21,11.86-15.98,11.86c-10.89,0-16.04-5.09-16.04-12.45v-0.84
		c0-7.36,5.15-12.45,16.04-12.45c10.76,0,15.98,4.59,15.98,11.86v0.12H380V12.6c0-4.43-3.43-6.71-10.48-6.71
		c-7.58,0-10.3,2.75-10.3,7.52v0.41c0,4.77,2.71,7.52,10.3,7.52c7.02,0,10.48-2.31,10.48-6.68v-0.12H385.62z"/>
	<path class="st0" d="M401.6,6.05v20.28h-5.59V6.05h-10.7V0.9h26.96v5.15H401.6z"/>
	<path class="st0" d="M427.69,21.93c6.93,0,9.52-0.94,9.52-3.15v-0.16c0-2.06-1.62-2.96-9.05-2.96c-11.79,0-14.73-2.25-14.73-6.99
		V8.42c0-4.62,4.09-7.68,14.48-7.68c9.64,0,14.2,3.37,14.2,8.36v0.12h-5.12V9.14c0-2.22-2.65-3.81-8.99-3.81
		c-6.68,0-8.89,1.03-8.89,2.78V8.2c0,1.84,1.12,2.68,9.39,2.68c10.98,0,14.48,2.18,14.48,7.58v0.19c0,5.24-4.93,7.83-15.04,7.83
		c-10.2,0-14.88-2.93-14.88-9.36v-0.22h5.15v0.12C418.2,20.46,421.17,21.93,427.69,21.93z"/>
</g>
</svg>
