<?xml version="1.0" encoding="utf-8"?>
<!-- Generator: Adobe Illustrator 26.5.0, SVG Export Plug-In . SVG Version: 6.00 Build 0)  -->
<svg version="1.1" id="Layer_1" xmlns="http://www.w3.org/2000/svg" xmlns:xlink="http://www.w3.org/1999/xlink" x="0px" y="0px"
	 viewBox="0 0 380.12 53.42" style="enable-background:new 0 0 380.12 53.42;" xml:space="preserve">
<style type="text/css">
	.st0{fill:#ED1C24;}
	.st1{fill:#FFFFFF;}
</style>
<g>
	<g>
		<path class="st0" d="M362.67,53.42H17.45C7.81,53.42,0,45.61,0,35.97V17.45C0,7.81,7.81,0,17.45,0h345.22
			c9.64,0,17.45,7.81,17.45,17.45v18.52C380.12,45.61,372.31,53.42,362.67,53.42z"/>
	</g>
	<g>
		<path class="st1" d="M26.73,27.73v8.09h-4.26V16.54h17.19v3.67H26.73v3.97h12.35v3.55H26.73z"/>
		<path class="st1" d="M58.5,35.82H41.3V16.54H58.5v3.67H45.56v3.67h12.35v3.57H45.56v4.68H58.5V35.82z"/>
		<path class="st1" d="M77.09,31.33H66.21l-2.01,4.49h-4.33l8.75-19.28h6.08l8.8,19.28h-4.4L77.09,31.33z M75.48,27.75l-3.83-8.56
			l-3.83,8.56H75.48z"/>
		<path class="st1" d="M91.29,20.45v15.37h-4.23V20.45h-8.11v-3.9h20.43v3.9H91.29z"/>
		<path class="st1" d="M122.52,16.54v7.92c0,8.07-3.05,11.47-10.71,11.47c-7.59,0-10.69-3.24-10.69-11.47v-7.92h4.26v8.21
			c0,5.16,1.94,7.26,6.39,7.26c4.4,0,6.53-1.99,6.53-7.26v-8.21H122.52z"/>
		<path class="st1" d="M134.4,28.25h-5.84v7.57h-4.26V16.54h10.26c6.48,0,8.68,2.06,8.68,5.75v0.28c0,2.65-1.25,4.49-4.54,5.25
			l4.85,7.99h-4.73L134.4,28.25z M128.55,20.16v4.56h6.29c2.89,0,4.12-0.45,4.12-2.25v-0.09c0-1.8-1.23-2.22-4.12-2.22H128.55z"/>
		<path class="st1" d="M162.19,35.82H145V16.54h17.19v3.67h-12.94v3.67h12.35v3.57h-12.35v4.68h12.94V35.82z"/>
		<path class="st1" d="M163.92,16.54h10.41c8.73,0,11.83,3.69,11.83,9.44v0.47c0,5.7-3.1,9.37-11.83,9.37h-10.41V16.54z
			 M168.18,20.4v11.59h5.91c4.99,0,7.81-1.37,7.81-5.65v-0.21c0-4.3-2.81-5.72-7.81-5.72H168.18z"/>
		<path class="st1" d="M198.65,29.74v6.08h-4.26V16.54h11c6.13,0,8.51,2.65,8.51,6.5v0.28c0,3.79-2.41,6.41-8.63,6.41H198.65z
			 M198.65,20.33v5.87h6.39c3.05,0,4.45-0.78,4.45-2.91v-0.07c0-2.1-1.4-2.88-4.45-2.88H198.65z"/>
		<path class="st1" d="M225.67,28.25h-5.84v7.57h-4.26V16.54h10.26c6.48,0,8.68,2.06,8.68,5.75v0.28c0,2.65-1.25,4.49-4.54,5.25
			l4.85,7.99h-4.73L225.67,28.25z M219.83,20.16v4.56h6.29c2.88,0,4.12-0.45,4.12-2.25v-0.09c0-1.8-1.23-2.22-4.12-2.22H219.83z"/>
		<path class="st1" d="M247.93,35.94c-8.59,0-12.16-3.55-12.16-9.58V26c0-6.03,3.57-9.58,12.16-9.58c8.51,0,12.11,3.55,12.11,9.58
			v0.35C260.04,32.39,256.45,35.94,247.93,35.94z M247.91,20.33c-5.46,0-7.88,1.51-7.88,5.79v0.12c0,4.28,2.41,5.79,7.88,5.79
			c5.46,0,7.85-1.51,7.85-5.79v-0.12C255.76,21.84,253.37,20.33,247.91,20.33z"/>
		<path class="st1" d="M259.86,31.94h1.63c2.96,0,4.64-1.56,4.64-5.3v-10.1h4.26v10.83c0,6.36-3.17,8.44-8.18,8.44h-2.34V31.94z"/>
		<path class="st1" d="M289.36,35.82h-17.19V16.54h17.19v3.67h-12.94v3.67h12.35v3.57h-12.35v4.68h12.94V35.82z"/>
		<path class="st1" d="M314.79,26.88v0.07c0,5.51-3.95,8.99-12.11,8.99c-8.25,0-12.16-3.86-12.16-9.44v-0.64
			c0-5.58,3.9-9.44,12.16-9.44c8.16,0,12.11,3.48,12.11,8.99v0.09h-4.26v-0.09c0-3.36-2.6-5.08-7.95-5.08c-5.75,0-7.8,2.08-7.8,5.7
			v0.31c0,3.62,2.06,5.7,7.8,5.7c5.32,0,7.95-1.75,7.95-5.06v-0.09H314.79z"/>
		<path class="st1" d="M326.91,20.45v15.37h-4.23V20.45h-8.11v-3.9h20.43v3.9H326.91z"/>
		<path class="st1" d="M346.68,32.48c5.25,0,7.21-0.71,7.21-2.39v-0.12c0-1.56-1.23-2.25-6.86-2.25c-8.94,0-11.16-1.7-11.16-5.3
			v-0.19c0-3.5,3.1-5.82,10.97-5.82c7.31,0,10.76,2.55,10.76,6.34v0.09h-3.88v-0.07c0-1.68-2.01-2.88-6.81-2.88
			c-5.06,0-6.74,0.78-6.74,2.1v0.07c0,1.4,0.85,2.03,7.12,2.03c8.33,0,10.97,1.66,10.97,5.75V30c0,3.97-3.74,5.94-11.4,5.94
			c-7.73,0-11.28-2.22-11.28-7.1v-0.17h3.9v0.09C339.5,31.37,341.74,32.48,346.68,32.48z"/>
	</g>
</g>
</svg>
