<?xml version="1.0" encoding="utf-8"?>
<!-- Generator: Adobe Illustrator 26.5.0, SVG Export Plug-In . SVG Version: 6.00 Build 0)  -->
<svg version="1.1" id="Layer_1" xmlns="http://www.w3.org/2000/svg" xmlns:xlink="http://www.w3.org/1999/xlink" x="0px" y="0px"
	 viewBox="0 0 1920 1080" style="enable-background:new 0 0 1920 1080;" xml:space="preserve">
<style type="text/css">
	.st0{clip-path:url(#SVGID_00000162344294729979449750000017555680071664902310_);}
	.st1{fill:none;stroke:#747474;stroke-width:4;stroke-miterlimit:10;}
</style>
<g>
	<defs>
		<rect id="SVGID_1_" y="-43.93" width="1920" height="1167.86"/>
	</defs>
	<clipPath id="SVGID_00000039817425813776464660000015030026072122806434_">
		<use xlink:href="#SVGID_1_"  style="overflow:visible;"/>
	</clipPath>
	<g style="clip-path:url(#SVGID_00000039817425813776464660000015030026072122806434_);">
		<path class="st1" d="M-185.72,368.31v-7.6c0-100.49,69.67-169.73,217.02-169.73c143.55,0,216.17,59.11,216.17,134.69v1.27h-75.15
			v-1.27c0-42.22-57.42-70.09-142.71-70.09c-101.33,0-139.33,40.11-139.33,108.51v4.64c0,66.71,37.58,105.55,139.33,105.55
			c70.51,0,130.88-12.67,143.55-70.93H32.14v-61.64h215.33V537.2h-46.02l-10.13-64.18c-19.84,38-77.26,66.29-162.55,66.29
			C-127.46,539.31-185.72,473.02-185.72,368.31z"/>
		<path class="st1" d="M471.66,231.1c10.56,0,15.62,0.42,22.38,2.11v75.15c-51.51-11.82-139.33-9.29-139.33,38.84v190h-76V233.21h76
			v100.06C354.71,280.92,385.11,231.1,471.66,231.1z"/>
		<path class="st1" d="M597.48,345.94h-76.84v-1.69c0-72.2,59.53-113.15,160.02-113.15c112.31,0,162.13,33.78,162.13,115.26V537.2
			h-75.58v-75.15c0,31.24-32.51,77.26-126.24,77.26c-86.55,0-134.26-20.27-134.26-79.8v-3.8c0-89.51,115.69-87.4,260.5-108.09v-0.42
			c0-35.47-18.58-52.35-89.51-52.35c-58.69,0-80.22,16.89-80.22,49.82V345.94z M649.41,489.49c59.95,0,117.8-6.33,117.8-40.95
			v-43.49c-140.6,15.62-184.51,23.22-184.51,50.24v1.69C582.7,477.24,598.75,489.49,649.41,489.49z"/>
		<path class="st1" d="M950.45,314.27c0-36.73,32.09-83.18,127.08-83.18c112.31,0,157.91,58.26,157.91,145.66v1.69
			c0,87.4-45.6,145.66-157.91,145.66c-95,0-127.08-46.44-127.08-83.17v117.37h-75.58v-325.1h75.58V314.27z M950.45,426.16
			c0,28.29,48.98,35.46,103.02,35.46c71.35,0,105.97-20.69,105.97-83.17v-1.69c0-62.49-34.62-83.17-105.97-83.17
			c-54.04,0-103.02,7.18-103.02,35.47V426.16z"/>
		<path class="st1" d="M1526.77,537.2V362.83c0-39.69-24.91-65.87-90.78-65.87c-45.18,0-93.31,9.29-93.31,46.87V537.2h-76V193.1h76
			v136.8c0-49.82,30.4-98.8,121.6-98.8c86.98,0,138.49,41.8,138.49,122.44V537.2H1526.77z"/>
		<path class="st1" d="M1634.43,189.72h76v32.93h-76V189.72z M1634.43,233.21h76V537.2h-76V233.21z"/>
		<path class="st1" d="M2101.82,397.87v8.87c0,81.91-55.73,132.57-180.28,132.57c-126.66,0-180.71-57.84-180.71-152.84v-2.53
			c0-95,54.04-152.84,180.71-152.84c124.55,0,180.28,50.67,180.28,132.57v8.87h-76v-3.38c0-51.51-32.93-70.09-105.13-70.09
			c-71.35,0-103.44,21.53-103.44,85.29v1.69c0,63.75,32.09,85.29,103.44,85.29c72.2,0,105.13-18.58,105.13-70.09v-3.38H2101.82z"/>
		<path class="st1" d="M-370.23,629.9h185.77c155.8,0,211.1,65.86,211.1,168.46v8.44c0,101.75-55.31,167.2-211.1,167.2h-185.77
			V629.9z M-294.23,698.72v206.88h105.55c89.09,0,139.33-24.49,139.33-100.91v-3.8c0-76.84-50.24-102.17-139.33-102.17H-294.23z"/>
		<path class="st1" d="M133.05,843.96c5.91,51.93,38.42,70.09,105.55,70.09c58.69,0,101.33-14.78,101.33-52.35v-0.84h76.84v0.84
			c0,64.18-52.78,114.42-180.28,114.42c-124.55,0-180.71-54.04-180.71-147.77v-3.38c0-100.06,56.58-157.06,181.13-157.06
			c122.44,0,179.86,51.93,179.86,135.95v40.11H133.05z M136,783.59h203.51c-6.76-39.27-39.69-55.31-104.29-55.31
			C178.22,728.28,146.13,743.48,136,783.59z"/>
		<path class="st1" d="M615.63,976.12c-118.22,0-172.68-34.2-172.68-104.29v-1.69h73.46v5.07c0,30.82,21.11,47.29,100.06,47.29
			c77.26,0,97.95-11.4,97.95-35.04v-1.69c0-24.07-19.42-34.62-93.73-34.62c-132.15,0-177.75-19-177.75-86.13v-1.69
			c0-62.06,56.15-95.42,172.68-95.42c114,0,170.57,40.11,170.57,105.13v3.38h-73.04v-5.91c0-31.67-26.6-48.98-99.22-48.98
			c-76.84,0-98.8,16.04-98.8,36.31v1.27c0,20.27,14.36,30.4,99.64,30.4c134.26,0,173.11,24.07,173.11,89.09v3.38
			C787.9,936.85,740.61,976.12,615.63,976.12z"/>
		<path class="st1" d="M815.34,626.52h76v32.93h-76V626.52z M815.34,670.01h76V974h-76V670.01z"/>
		<path class="st1" d="M1283.15,670.01v230.95c0,60.8-44.75,96.26-177.33,96.26c-124.55,0-171-29.55-171-78.53v-6.76h73.46v1.27
			c0,30.82,29.13,38,97.95,38c70.93,0,100.91-10.98,100.91-49.82v-73.46c0,33.78-31.67,80.22-126.24,80.22
			c-110.2,0-158.75-40.11-158.75-114.42v-8.87c0-75.58,48.55-116.95,158.75-116.95c94.58,0,126.24,46.87,126.24,80.22v-78.11
			H1283.15z M1103.71,722.37c-70.93,0-105.55,16.89-105.55,65.02v4.22c0,46.44,32.51,62.49,105.55,62.49
			c54.04,0,103.44-7.6,103.44-39.27v-53.2C1207.15,730.39,1157.75,722.37,1103.71,722.37z"/>
		<path class="st1" d="M1390.81,766.7c0-49.82,30.4-98.8,121.6-98.8c87.4,0,138.49,41.8,138.49,122.44V974h-76V799.63
			c0-39.69-24.91-65.87-90.78-65.87c-45.18,0-93.31,9.29-93.31,46.87V974h-76V670.01h76V766.7z"/>
		<path class="st1" d="M1758.56,843.96c5.91,51.93,38.42,70.09,105.55,70.09c58.69,0,101.33-14.78,101.33-52.35v-0.84h76.84v0.84
			c0,64.18-52.78,114.42-180.28,114.42c-124.55,0-180.71-54.04-180.71-147.77v-3.38c0-100.06,56.58-157.06,181.13-157.06
			c122.44,0,179.86,51.93,179.86,135.95v40.11H1758.56z M1761.52,783.59h203.51c-6.76-39.27-39.69-55.31-104.29-55.31
			C1803.74,728.28,1771.65,743.48,1761.52,783.59z"/>
		<path class="st1" d="M2266.06,667.9c10.55,0,15.62,0.42,22.38,2.11v75.15c-51.51-11.82-139.33-9.29-139.33,38.84v190h-76V670.01
			h76v100.06C2149.11,717.72,2179.51,667.9,2266.06,667.9z"/>
	</g>
</g>
</svg>
