<?xml version="1.0" encoding="utf-8"?>
<!-- Generator: Adobe Illustrator 26.5.0, SVG Export Plug-In . SVG Version: 6.00 Build 0)  -->
<svg version="1.1" id="Layer_1" xmlns="http://www.w3.org/2000/svg" xmlns:xlink="http://www.w3.org/1999/xlink" x="0px" y="0px"
	 viewBox="0 0 390.23 80.72" style="enable-background:new 0 0 390.23 80.72;" xml:space="preserve">
<style type="text/css">
	.st0{fill:#747474;}
	.st1{fill:#ED1C24;}
</style>
<g>
	<g>
		<path class="st0" d="M38.42,46.08H17.75v13.17h-6.81V28.4h6.81v11.66h20.67V28.4h6.78v30.85h-6.78V46.08z"/>
		<path class="st0" d="M75.61,59.25H48.08V28.4h27.52v5.87H54.9v5.87h19.76v5.72H54.9v7.5h20.71V59.25z"/>
		<path class="st0" d="M77.73,28.4h7.95l10.56,12.76l10.18-12.76h7.99L99.42,46.5v12.76h-6.81v-12.8L77.73,28.4z"/>
		<path class="st0" d="M146.75,34.65v24.61h-6.78V34.65h-12.98V28.4h32.71v6.25H146.75z"/>
		<path class="st0" d="M189.95,46.08h-20.67v13.17h-6.81V28.4h6.81v11.66h20.67V28.4h6.78v30.85h-6.78V46.08z"/>
		<path class="st0" d="M227.13,59.25h-27.52V28.4h27.52v5.87h-20.71v5.87h19.76v5.72h-19.76v7.5h20.71V59.25z"/>
		<path class="st0" d="M246.06,47.14h-9.35v12.11h-6.81V28.4h16.43c10.37,0,13.89,3.29,13.89,9.2v0.45c0,4.24-2.01,7.19-7.27,8.4
			l7.76,12.8h-7.57L246.06,47.14z M236.71,34.19v7.31h10.07c4.62,0,6.59-0.72,6.59-3.6v-0.15c0-2.88-1.97-3.56-6.59-3.56H236.71z"/>
		<path class="st0" d="M290.55,59.25h-27.52V28.4h27.52v5.87h-20.71v5.87h19.76v5.72h-19.76v7.5h20.71V59.25z"/>
	</g>
	<g>
		<g>
			<g>
				<path class="st1" d="M335.25,73.51c-1.07-0.49-2.16-0.96-3.22-1.48c-4.42-2.2-7.41-5.64-8.61-10.45
					c-1.56-6.29-2.98-12.62-4.42-18.95c-0.18-0.8-0.25-1.67-0.15-2.47c0.18-1.49,1.4-2.59,2.83-2.76c1.45-0.17,2.89,0.64,3.46,2.05
					c0.94,2.35,1.81,4.72,2.71,7.07c0.17,0.45,0.34,0.91,0.54,1.35c0.18,0.39,0.48,0.78,0.92,0.64c0.3-0.1,0.64-0.46,0.74-0.78
					c1.88-5.87,3.74-11.74,5.59-17.62c1.06-3.37,2.1-6.76,3.15-10.13c0.58-1.85,2.1-2.72,3.99-2.3c1.25,0.28,2,1.05,2.26,2.3
					c0.2,0.96,0.04,1.89-0.24,2.81c-1.31,4.27-2.62,8.55-3.93,12.82c-0.34,1.11-0.69,2.23-1.02,3.35c-0.06,0.18-0.15,0.41-0.09,0.56
					c0.12,0.27,0.3,0.65,0.53,0.71c0.26,0.07,0.67-0.08,0.9-0.27c0.2-0.16,0.26-0.51,0.35-0.78c2.07-6.64,4.13-13.29,6.21-19.93
					c0.17-0.53,0.37-1.07,0.66-1.55c0.93-1.55,2.52-2.05,4.11-1.35c1.53,0.68,2.25,2.22,1.81,3.91c-0.05,0.19-0.11,0.37-0.17,0.56
					c-2.09,6.76-4.18,13.52-6.27,20.28c-0.02,0.06-0.03,0.11-0.05,0.17c-0.25,0.82-0.07,1.31,0.52,1.49
					c0.58,0.17,0.99-0.13,1.23-0.92c1.87-5.99,3.73-11.99,5.61-17.98c0.16-0.51,0.38-1.03,0.68-1.47c0.85-1.25,2.23-1.54,3.9-0.88
					c1.3,0.51,1.98,1.64,1.75,3.07c-0.19,1.17-0.41,2.34-0.75,3.47c-1.71,5.62-3.46,11.22-5.19,16.83
					c-0.08,0.26-0.16,0.52-0.22,0.79c-0.09,0.38-0.02,0.7,0.38,0.86c0.42,0.17,0.82,0.17,1.08-0.25c0.16-0.26,0.27-0.56,0.36-0.85
					c1.16-3.67,2.28-7.35,3.48-11.01c0.32-0.99,0.81-1.93,1.33-2.84c0.68-1.19,1.8-1.5,3.3-1.05c1.43,0.42,2.21,1.34,2.12,2.68
					c-0.07,1-0.18,2.02-0.46,2.98c-2.38,7.87-4.79,15.73-7.22,23.59c-0.92,2.99-1.97,5.94-3.7,8.59c-3.5,5.36-9.3,7.8-15.58,6.54
					c-0.59-0.12-1.18-0.22-1.76-0.32C337.56,74.23,336.41,73.87,335.25,73.51z"/>
			</g>
		</g>
		<g>
			<g>
				<path class="st1" d="M325.7,22.01c-0.16-8.01,7.97-15.46,15.07-16.52l0.15,0.99c-6.56,0.98-14.37,8.12-14.22,15.51L325.7,22.01z
					"/>
			</g>
			<g>
				<path class="st1" d="M330.31,20.71c-0.1-5.01,4.98-9.67,9.41-10.33l0.15,0.99c-3.95,0.59-8.65,4.88-8.56,9.32L330.31,20.71z"/>
			</g>
		</g>
		<g>
			<g>
				<path class="st1" d="M376.03,43.98l-0.8-0.6c3.95-5.33,4.42-15.9-0.91-21.02l0.69-0.72C380.79,27.19,380.3,38.21,376.03,43.98z"
					/>
			</g>
			<g>
				<path class="st1" d="M373.32,39.79l-0.8-0.59c2.38-3.21,2.66-9.57-0.54-12.65l0.69-0.72C376.28,29.3,375.98,36.18,373.32,39.79z
					"/>
			</g>
		</g>
	</g>
</g>
</svg>
