<?xml version="1.0" encoding="utf-8"?>
<!-- Generator: Adobe Illustrator 26.5.0, SVG Export Plug-In . SVG Version: 6.00 Build 0)  -->
<svg version="1.1" id="Layer_1" xmlns="http://www.w3.org/2000/svg" xmlns:xlink="http://www.w3.org/1999/xlink" x="0px" y="0px"
	 viewBox="0 0 307.01 57.75" style="enable-background:new 0 0 307.01 57.75;" xml:space="preserve">
<style type="text/css">
	.st0{fill:#747474;}
	.st1{fill:#ED1C24;}
</style>
<g>
	<path class="st0" d="M22.65,35.73H5.62v10.86H0V21.16h5.62v9.61h17.04v-9.61h5.59v25.43h-5.59V35.73z"/>
	<path class="st0" d="M53.3,46.59H30.62V21.16H53.3V26H36.23v4.84h16.29v4.71H36.23v6.18H53.3V46.59z"/>
	<path class="st0" d="M55.05,21.16h6.55l8.71,10.52l8.39-10.52h6.58L72.93,36.08v10.52h-5.62V36.05L55.05,21.16z"/>
	<path class="st0" d="M111.94,26.31v20.28h-5.59V26.31h-10.7v-5.15h26.96v5.15H111.94z"/>
	<path class="st0" d="M147.55,35.73h-17.04v10.86h-5.62V21.16h5.62v9.61h17.04v-9.61h5.59v25.43h-5.59V35.73z"/>
	<path class="st0" d="M178.2,46.59h-22.69V21.16h22.69V26h-17.07v4.84h16.29v4.71h-16.29v6.18h17.07V46.59z"/>
	<path class="st0" d="M193.81,36.61h-7.71v9.99h-5.62V21.16h13.54c8.55,0,11.45,2.71,11.45,7.58v0.37c0,3.5-1.65,5.93-5.99,6.93
		l6.4,10.55h-6.24L193.81,36.61z M186.1,25.94v6.02h8.3c3.81,0,5.43-0.59,5.43-2.96v-0.12c0-2.37-1.62-2.93-5.43-2.93H186.1z"/>
	<path class="st0" d="M230.48,46.59h-22.69V21.16h22.69V26h-17.07v4.84h16.29v4.71h-16.29v6.18h17.07V46.59z"/>
</g>
<g>
	<g>
		<g>
			<path class="st1" d="M270.52,56.32c-0.89-0.41-1.79-0.79-2.66-1.23c-3.65-1.82-6.13-4.66-7.12-8.64
				c-1.29-5.2-2.46-10.44-3.65-15.66c-0.15-0.66-0.21-1.38-0.13-2.05c0.15-1.23,1.16-2.14,2.34-2.28c1.2-0.14,2.39,0.53,2.86,1.69
				c0.77,1.94,1.5,3.9,2.24,5.85c0.14,0.37,0.28,0.75,0.45,1.12c0.15,0.32,0.4,0.64,0.76,0.53c0.25-0.08,0.53-0.38,0.61-0.64
				c1.56-4.85,3.09-9.71,4.62-14.57c0.88-2.79,1.73-5.59,2.61-8.38c0.48-1.53,1.74-2.25,3.3-1.9c1.04,0.23,1.65,0.87,1.87,1.9
				c0.17,0.79,0.03,1.56-0.2,2.32c-1.09,3.53-2.17,7.07-3.25,10.6c-0.28,0.92-0.57,1.84-0.85,2.77c-0.05,0.15-0.12,0.34-0.07,0.47
				c0.1,0.23,0.25,0.53,0.44,0.59c0.22,0.06,0.55-0.06,0.74-0.22c0.16-0.13,0.21-0.42,0.29-0.65c1.71-5.49,3.42-10.99,5.13-16.48
				c0.14-0.44,0.31-0.88,0.55-1.28c0.77-1.28,2.08-1.7,3.4-1.11c1.27,0.56,1.86,1.84,1.49,3.24c-0.04,0.16-0.09,0.31-0.14,0.46
				c-1.73,5.59-3.46,11.18-5.19,16.77c-0.01,0.05-0.03,0.09-0.04,0.14c-0.21,0.67-0.06,1.09,0.43,1.23
				c0.48,0.14,0.82-0.11,1.02-0.76c1.55-4.96,3.08-9.91,4.64-14.87c0.13-0.42,0.31-0.85,0.56-1.22c0.7-1.03,1.84-1.27,3.23-0.73
				c1.07,0.42,1.64,1.36,1.45,2.54c-0.16,0.96-0.34,1.93-0.62,2.87c-1.41,4.64-2.86,9.28-4.29,13.91c-0.07,0.21-0.13,0.43-0.18,0.65
				c-0.07,0.31-0.01,0.58,0.32,0.71c0.35,0.14,0.68,0.14,0.89-0.21c0.13-0.21,0.22-0.46,0.3-0.71c0.96-3.03,1.88-6.08,2.88-9.1
				c0.27-0.82,0.67-1.6,1.1-2.35c0.56-0.98,1.49-1.24,2.73-0.87c1.18,0.35,1.83,1.11,1.75,2.21c-0.05,0.83-0.15,1.67-0.38,2.46
				c-1.97,6.51-3.96,13.01-5.97,19.5c-0.76,2.47-1.63,4.91-3.06,7.1c-2.89,4.43-7.69,6.45-12.88,5.41c-0.48-0.1-0.97-0.18-1.46-0.27
				C272.42,56.91,271.47,56.62,270.52,56.32z"/>
		</g>
	</g>
	<g>
		<g>
			<path class="st1" d="M262.53,13.75C262.4,7.08,269.16,0.88,275.06,0l0.15,0.99c-5.39,0.81-11.8,6.67-11.68,12.74L262.53,13.75z"
				/>
		</g>
		<g>
			<path class="st1" d="M266.34,12.67c-0.08-4.19,4.16-8.08,7.86-8.63l0.15,0.99c-3.23,0.48-7.08,3.99-7,7.62L266.34,12.67z"/>
		</g>
	</g>
	<g>
		<g>
			<path class="st1" d="M304.3,31.96l-0.8-0.59c3.24-4.38,3.63-13.06-0.75-17.27l0.69-0.72C308.25,18,307.85,27.16,304.3,31.96z"/>
		</g>
		<g>
			<path class="st1" d="M302.06,28.49l-0.8-0.59c1.94-2.63,2.18-7.83-0.44-10.34l0.69-0.72C304.53,19.74,304.28,25.48,302.06,28.49z
				"/>
		</g>
	</g>
</g>
</svg>
