<?xml version="1.0" encoding="utf-8"?>
<!-- Generator: Adobe Illustrator 26.5.0, SVG Export Plug-In . SVG Version: 6.00 Build 0)  -->
<svg version="1.1" id="Layer_1" xmlns="http://www.w3.org/2000/svg" xmlns:xlink="http://www.w3.org/1999/xlink" x="0px" y="0px"
	 viewBox="0 0 870.12 384.26" style="enable-background:new 0 0 870.12 384.26;" xml:space="preserve">
<style type="text/css">
	.st0{fill:#ECE9E4;}
	.st1{fill:#ED1C24;}
	.st2{fill:#1A1A1A;}
</style>
<g>
	<g>
		<path class="st0" d="M7.47,7.78h25.16v90.16h76.04v23.76H7.47V7.78z"/>
		<path class="st0" d="M135.65,78.66c1.96,17.19,12.72,23.2,34.95,23.2c19.43,0,33.55-4.89,33.55-17.33v-0.28h25.44v0.28
			c0,21.25-17.47,37.88-59.69,37.88c-41.24,0-59.83-17.89-59.83-48.93v-1.12c0-33.13,18.73-52,59.97-52
			c40.54,0,59.55,17.19,59.55,45.01v13.28H135.65z M136.63,58.67H204c-2.24-13-13.14-18.31-34.53-18.31
			C150.61,40.35,139.98,45.39,136.63,58.67z"/>
		<path class="st0" d="M256.14,121.71V41.19h-24.18V21.06h24.18V9.6h25.16v11.46h34.67v20.13H281.3v80.52H256.14z"/>
		<path class="st0" d="M326.03,40.91l5.17-14.4h-6.71V7.78h21.67v18.73l-6.29,14.4H326.03z"/>
		<path class="st0" d="M404.87,122.41c-39.14,0-57.17-11.32-57.17-34.53v-0.56h24.32V89c0,10.2,6.99,15.66,33.13,15.66
			c25.58,0,32.43-3.77,32.43-11.6V92.5c0-7.97-6.43-11.46-31.03-11.46c-43.75,0-58.85-6.29-58.85-28.52v-0.56
			c0-20.55,18.59-31.59,57.17-31.59c37.74,0,56.47,13.28,56.47,34.81v1.12h-24.18v-1.96c0-10.48-8.81-16.21-32.85-16.21
			c-25.44,0-32.71,5.31-32.71,12.02v0.42c0,6.71,4.75,10.07,32.99,10.07c44.45,0,57.31,7.97,57.31,29.49v1.12
			C461.9,109.41,446.24,122.41,404.87,122.41z"/>
		<path class="st0" d="M532.76,121.71V41.19h-24.18V21.06h24.18V9.6h25.16v11.46h34.67v20.13h-34.67v80.52H532.76z"/>
		<path class="st0" d="M622.36,58.39h-25.44v-0.56c0-23.9,19.71-37.46,52.98-37.46c37.18,0,53.68,11.18,53.68,38.16v63.18h-25.02
			V96.83c0,10.34-10.76,25.58-41.8,25.58c-28.66,0-44.45-6.71-44.45-26.42v-1.26c0-29.63,38.3-28.94,86.25-35.79v-0.14
			c0-11.74-6.15-17.33-29.63-17.33c-19.43,0-26.56,5.59-26.56,16.5V58.39z M639.56,105.91c19.85,0,39-2.1,39-13.56v-14.4
			c-46.55,5.17-61.09,7.69-61.09,16.63v0.56C617.47,101.86,622.78,105.91,639.56,105.91z"/>
		<path class="st0" d="M714.2,7.78h25.16v113.93H714.2V7.78z"/>
		<path class="st0" d="M749.84,7.78H775v60.81l53.12-47.53h33.13l-56.89,49.2l58.29,51.44H828.4L775,73.9v47.81h-25.16V7.78z"/>
		<path class="st0" d="M99.37,175.36h61.51c51.58,0,69.89,21.81,69.89,55.77v2.8c0,33.69-18.31,55.36-69.89,55.36H99.37V175.36z
			 M124.53,198.15v68.5h34.95c29.5,0,46.13-8.11,46.13-33.41v-1.26c0-25.44-16.63-33.83-46.13-33.83H124.53z"/>
		<path class="st0" d="M265.99,246.24c1.96,17.19,12.72,23.2,34.95,23.2c19.43,0,33.55-4.89,33.55-17.33v-0.28h25.44v0.28
			c0,21.25-17.47,37.88-59.69,37.88c-41.24,0-59.83-17.89-59.83-48.93v-1.12c0-33.13,18.73-52,59.97-52
			c40.54,0,59.55,17.19,59.55,45.01v13.28H265.99z M266.97,226.25h67.38c-2.24-13-13.14-18.31-34.53-18.31
			C280.95,207.93,270.33,212.97,266.97,226.25z"/>
		<path class="st0" d="M425.76,289.99c-39.14,0-57.17-11.32-57.17-34.53v-0.56h24.32v1.68c0,10.2,6.99,15.66,33.13,15.66
			c25.58,0,32.43-3.77,32.43-11.6v-0.56c0-7.97-6.43-11.46-31.03-11.46c-43.75,0-58.85-6.29-58.85-28.52v-0.56
			c0-20.55,18.59-31.59,57.17-31.59c37.74,0,56.47,13.28,56.47,34.81v1.12h-24.18v-1.96c0-10.48-8.81-16.21-32.85-16.21
			c-25.44,0-32.71,5.31-32.71,12.02v0.42c0,6.71,4.75,10.07,32.99,10.07c44.45,0,57.31,7.97,57.31,29.49v1.12
			C482.8,276.99,467.14,289.99,425.76,289.99z"/>
		<path class="st0" d="M491.88,174.25h25.16v10.9h-25.16V174.25z M491.88,188.64h25.16v100.65h-25.16V188.64z"/>
		<path class="st0" d="M646.76,188.64v76.46c0,20.13-14.82,31.87-58.71,31.87c-41.24,0-56.61-9.79-56.61-26v-2.24h24.32v0.42
			c0,10.2,9.65,12.58,32.43,12.58c23.48,0,33.41-3.63,33.41-16.49v-24.32c0,11.18-10.48,26.56-41.8,26.56
			c-36.48,0-52.56-13.28-52.56-37.88v-2.94c0-25.02,16.08-38.72,52.56-38.72c31.31,0,41.8,15.52,41.8,26.56v-25.86H646.76z
			 M587.35,205.98c-23.48,0-34.95,5.59-34.95,21.53v1.4c0,15.38,10.76,20.69,34.95,20.69c17.89,0,34.25-2.52,34.25-13v-17.61
			C621.6,208.63,605.24,205.98,587.35,205.98z"/>
		<path class="st0" d="M682.4,220.65c0-16.5,10.06-32.71,40.26-32.71c28.94,0,45.85,13.84,45.85,40.54v60.81h-25.16v-57.73
			c0-13.14-8.25-21.81-30.05-21.81c-14.96,0-30.89,3.08-30.89,15.52v64.02h-25.16V188.64h25.16V220.65z"/>
	</g>
	<g>
		<g>
			<g>
				<path class="st1" d="M289.29,357.34c14.45-2.07,29.27-3.92,44.32-5.52c15.04-1.6,30.11-2.94,45.2-4.01
					c30.18-2.14,60.43-3.21,90.69-3.21c16.94,0,33.87,0.34,50.79,1.01c2.35,0.09,4.61-2.14,4.5-4.5c-0.11-2.52-1.98-4.4-4.5-4.5
					c-30.4-1.2-60.83-1.33-91.23-0.37c-30.24,0.95-60.44,2.98-90.54,6.07c-17.25,1.77-34.46,3.9-51.62,6.36
					c-2.34,0.33-3.83,3.43-3.14,5.54C284.58,356.76,286.78,357.7,289.29,357.34L289.29,357.34z"/>
			</g>
		</g>
		<g>
			<g>
				<path class="st1" d="M523.68,323.61c13.49,9.93,28.05,18.38,43.37,25.14c4.55,2.01,9.15,3.88,13.81,5.62
					c0.8-2.89,1.6-5.79,2.39-8.68c-22.8-4.28-46.8-0.1-66.88,11.52c-5.69,3.3-11.04,7.22-15.93,11.62c-1.76,1.58-1.73,4.78,0,6.36
					c1.88,1.72,4.49,1.68,6.36,0c0.98-0.88,1.98-1.75,3-2.59c0.51-0.42,1.03-0.83,1.54-1.24c0.68-0.53,0.17-0.13,0.03-0.02
					c0.42-0.32,0.84-0.64,1.27-0.95c2.12-1.56,4.32-3.03,6.57-4.4c2.25-1.37,4.57-2.64,6.93-3.82c1.18-0.59,2.38-1.15,3.58-1.68
					c0.3-0.13,0.61-0.26,0.91-0.4c0.71-0.32-0.98,0.4,0.2-0.09c0.73-0.3,1.47-0.6,2.21-0.88c4.93-1.9,10.02-3.38,15.19-4.43
					c1.29-0.26,2.59-0.5,3.9-0.71c0.65-0.1,1.3-0.2,1.96-0.29c-0.9,0.13-0.2,0.03-0.02,0.01c0.52-0.06,1.05-0.13,1.57-0.18
					c2.62-0.28,5.26-0.45,7.9-0.51c3.03-0.07,6.07,0.02,9.09,0.26c1.45,0.11,2.89,0.27,4.33,0.45c-0.95-0.12-0.06-0.01,0.18,0.03
					c0.46,0.07,0.91,0.14,1.37,0.21c0.78,0.13,1.56,0.27,2.34,0.41c2.31,0.43,4.97-0.64,5.54-3.14c0.58-2.55-0.78-4.66-3.14-5.54
					c-1.97-0.73-3.93-1.49-5.88-2.27c-0.91-0.36-1.81-0.74-2.71-1.11c-0.48-0.2-0.05-0.02,0.04,0.02c-0.21-0.09-0.41-0.18-0.62-0.26
					c-0.55-0.24-1.1-0.47-1.65-0.71c-3.78-1.65-7.53-3.41-11.22-5.26c-7.38-3.71-14.56-7.82-21.49-12.3
					c-3.91-2.53-7.74-5.18-11.49-7.94c-1.9-1.4-5.1-0.38-6.16,1.61C520.83,319.8,521.65,322.12,523.68,323.61L523.68,323.61z"/>
			</g>
		</g>
	</g>
	<g>
		<g>
			<g>
				<path class="st1" d="M112.23,202.06c-0.24-0.43-0.45-0.82-0.63-1.18l-0.18-0.36c-0.6-1.2-1.2-2.4-1.77-3.63
					c-0.54-1.17-1.25-2.73-1.94-4.31c-0.21-0.48-0.67-1.56-0.67-1.56c-0.29-0.68-0.59-1.38-0.9-2.07c-0.64-1.43-1.26-2.83-1.92-4.24
					c-0.38-0.81-0.76-1.63-1.14-2.44l-1.13-2.41c-0.44-0.95-0.86-1.85-1.3-2.72l-0.15-0.3c-0.42-0.85-0.85-1.71-1.33-2.48
					c-0.44-0.72-1-1.46-1.65-2.18c-0.58-0.64-1.31-1.23-2.12-1.69c-0.35-0.21-0.78-0.37-1.29-0.56c-0.28-0.1-0.62-0.17-0.91-0.22
					c-0.69-0.12-1.41-0.18-2.14-0.2c0,0-0.6-0.02-0.73-0.02l-1.52,0.06c-1.13,0.05-2.29,0.16-3.41,0.28l-0.72,0.07
					c-1,0.1-2,0.22-2.98,0.35l-1.73,0.21c-1.3,0.15-2.57,0.31-3.85,0.41l-0.92,0.07c-1.11,0.09-2.25,0.18-3.38,0.24
					c-1.77,0.09-3.39,0.16-4.94,0.21c-1.1,0.04-2.02,0.05-2.89,0.05c-0.36,0-0.73,0-1.09-0.01l-2.62-0.05
					c-0.52-0.01-1.05-0.04-1.56-0.07l-0.76-0.04c-1.36-0.07-2.68-0.2-3.68-0.32c-1.22-0.14-2.48-0.29-3.87-0.47l-0.44-0.06
					c-1.89-0.27-3.84-0.55-5.76-1.29l-0.11-0.05c-0.71-0.33-1.35-0.69-1.95-1.12l-0.07-0.05L42,167.85
					c-0.48-0.4-0.92-0.84-1.34-1.35l-0.09-0.11c-0.64-0.88-1.19-1.82-1.64-2.81l-0.04-0.1c-0.52-1.35-0.89-2.8-1.15-4.57
					c-0.16-1.32-0.27-2.72-0.34-4.42l-0.01-0.29c-0.05-1.33-0.11-2.71-0.13-4.07c-0.03-2.77-0.07-5.79,0-8.75l0.02-0.73
					c0.02-0.83,0.03-1.69,0.07-2.53c0.06-1.2,0.1-2.21,0.16-3.23c0.03-0.53,0.16-1.42,0.34-2.61c0.08-0.56,0.16-1.05,0.18-1.25
					c0.02-0.42,0.11-0.8,0.18-1.1c0.04-0.17,0.08-0.37,0.09-0.46c0.01-0.28,0.04-0.69,0.08-1.09c0.02-0.25,0.05-0.5,0.06-0.67
					c0.03-0.59,0.12-1.06,0.21-1.51c0.06-0.31,0.13-0.65,0.17-1.07l0.02-0.22c0.17-1.67,0.35-3.56,0.59-5.42
					c0.26-1.63,0.58-3.11,0.98-4.58c0.35-1.27,0.79-2.57,1.44-4.24c0.24-0.55,0.42-0.94,0.61-1.3c0.32-0.61,0.7-1.23,1.16-1.88
					l0.05-0.07l0.05-0.06c0.64-0.76,1.34-1.36,1.94-1.84c1.64-1.22,3.36-2.43,5.3-3.3l0.1-0.04c0.52-0.2,1.08-0.39,1.76-0.59
					l0.36-0.11c0.28-0.09,0.57-0.18,0.86-0.25l0.49-0.13c0.52-0.13,1.07-0.27,1.61-0.39l0.11-0.03c1.38-0.31,2.81-0.63,4.27-0.85
					c1.54-0.24,3.1-0.47,4.62-0.69c1.49-0.22,3-0.44,4.49-0.67c1.3-0.2,2.61-0.45,3.74-0.66l4.45-0.84
					c3.08-0.58,5.87-1.09,8.54-1.55c4.76-0.82,9.6-1.64,14.28-2.43l2.88-0.49c6.53-1.11,11.98-2.09,17.16-3.08l1.76-0.34
					c2.3-0.44,4.67-0.9,7.01-1.38c2.85-0.59,5.69-1.18,8.54-1.77c2-0.42,3.77-0.78,5.4-1.11l0.1-0.02c0.65-0.13,1.33-0.27,2.02-0.38
					l2.64-0.44l0.22-0.03c2.02-0.25,4.12-0.51,6.26-0.51c0.85,0,1.64,0.04,2.42,0.12l0.11,0.01c0.81,0.13,1.52,0.31,2.19,0.56
					l0.09,0.03l0.08,0.04c0.52,0.25,1.02,0.54,1.49,0.87l0.08,0.05l0.07,0.06c0.56,0.48,1.09,1.03,1.62,1.68l0.08,0.1
					c0.58,0.81,1.1,1.73,1.64,2.89l0.69,1.68c0.09,0.21,0.16,0.43,0.22,0.65l0.57,1.75c0.19,0.57,0.34,1.15,0.48,1.68l0.64,2.55
					c0.03,0.13,0.06,0.27,0.09,0.41l0.31,1.58c0.04,0.22,0.09,0.43,0.13,0.65c0.1,0.47,0.2,0.96,0.27,1.44l0.67,4.23l0.56,4.43
					c0.13,1.03,0.23,2.08,0.32,3.09c0.04,0.46,0.08,0.91,0.13,1.36c0.28,2.84,0.47,5.72,0.65,8.5l0.01,0.13
					c0.09,1.43,0.17,2.85,0.24,4.06l0.05,0.87c0.06,1.12,0.13,2.24,0.16,3.34c0.08,2.9,0.15,5.89,0.08,8.93l-0.06,2.78
					c-0.01,0.32-0.01,0.64-0.03,0.95l-0.05,0.86c-0.08,1.3-0.16,2.61-0.32,3.92c-0.29,1.95-0.67,3.48-1.2,4.84l-0.04,0.1
					c-0.4,0.88-0.87,1.68-1.42,2.45l-0.08,0.1c-0.59,0.72-1.25,1.36-2,1.98c-0.57,0.42-1.1,0.77-1.64,1.1
					c-0.64,0.38-1.31,0.7-1.95,0.98l-1.93,0.78c-0.21,0.08-0.43,0.16-0.64,0.23l-1.63,0.56c-0.57,0.19-1.09,0.34-1.59,0.49
					l-0.47,0.13c-0.64,0.19-1.25,0.36-1.86,0.52l-0.7,0.18c-0.52,0.13-1.03,0.27-1.54,0.38l-2.59,0.58
					c-0.91,0.2-1.84,0.39-2.74,0.58l-1.35,0.28c-1.73,0.36-3.49,0.68-5.19,0.99c-1.05,0.19-2.1,0.38-3.13,0.58l-2.65,0.51
					c-0.46,0.09-0.93,0.2-1.38,0.31l-0.74,0.17c-1.14,0.26-2.29,0.59-3.41,0.91l-0.36,0.1c-1.79,0.51-3.17,0.87-4.47,1.17
					c-0.49,0.11-0.99,0.22-1.49,0.33l-0.49,0.11c-0.36,0.08-0.74,0.17-1.09,0.3c-0.41,0.15-0.59,0.31-0.72,0.44
					c-0.17,0.17-0.3,0.69-0.42,1.15l-0.03,0.1c-0.13,0.52-0.23,1.07-0.33,1.6l-0.04,0.22c-0.14,0.76-0.28,1.54-0.41,2.32
					c-0.27,1.56-0.48,3.1-0.67,4.53c-0.49,3.65-0.81,7.4-1.12,11.03c-0.17,2.04-0.35,4.12-0.56,6.17l-0.15,1.5
					c-0.03,0.27-0.06,0.55-0.09,0.82l-0.74,6.09L112.23,202.06z"/>
			</g>
			<g>
				<path class="st2" d="M154.61,85.44c0.78,0,1.5,0.04,2.21,0.11c0.68,0.11,1.27,0.26,1.81,0.46c0.42,0.2,0.82,0.44,1.2,0.7
					c0.47,0.4,0.91,0.86,1.37,1.42c0.5,0.7,0.96,1.51,1.44,2.57l0.33,0.8l0.33,0.8c0.06,0.15,0.11,0.32,0.16,0.48
					c0.02,0.08,0.05,0.16,0.07,0.24l0.21,0.64l0.3,0.92c0.17,0.52,0.31,1.05,0.44,1.55l0.53,2.12l0.11,0.43
					c0.03,0.12,0.05,0.23,0.07,0.35c0.01,0.05,0.02,0.11,0.03,0.16l0.13,0.69l0.14,0.69c0.04,0.22,0.09,0.45,0.14,0.67
					c0.09,0.44,0.18,0.9,0.26,1.35l0.3,1.9l0.37,2.33c0.18,1.46,0.37,2.92,0.55,4.38c0.13,1.01,0.22,2.03,0.31,3.03
					c0.04,0.45,0.08,0.91,0.13,1.36c0.28,2.82,0.47,5.7,0.65,8.48l0.01,0.08c0.09,1.42,0.17,2.84,0.24,4.04l0.05,0.87
					c0.06,1.08,0.12,2.19,0.15,3.28c0.08,2.87,0.15,5.84,0.08,8.83l-0.03,1.24l-0.03,1.24c0,0.11,0,0.22-0.01,0.32
					c0,0.28-0.01,0.57-0.03,0.85c-0.02,0.29-0.04,0.57-0.05,0.86c-0.08,1.25-0.16,2.54-0.31,3.8c-0.26,1.75-0.6,3.13-1.08,4.36
					c-0.35,0.76-0.75,1.45-1.22,2.11c-0.51,0.62-1.07,1.17-1.72,1.7c-0.45,0.33-0.92,0.64-1.4,0.93c-0.58,0.34-1.21,0.64-1.75,0.88
					l-1.85,0.75c-0.16,0.07-0.34,0.12-0.5,0.18c-0.08,0.03-0.16,0.05-0.24,0.08l-1.42,0.49l-0.06,0.02
					c-0.48,0.16-0.97,0.3-1.44,0.44c-0.15,0.04-0.3,0.09-0.46,0.13c-0.58,0.17-1.19,0.34-1.79,0.5c-0.24,0.06-0.48,0.12-0.72,0.19
					c-0.48,0.13-0.98,0.26-1.47,0.37l-1.46,0.33l-1.13,0.25c-0.93,0.21-1.89,0.4-2.81,0.59c-0.41,0.08-0.83,0.17-1.24,0.25
					c-1.71,0.36-3.45,0.67-5.14,0.98c-1.03,0.19-2.1,0.38-3.15,0.58c-0.88,0.17-1.76,0.34-2.65,0.51c-0.49,0.09-0.99,0.21-1.48,0.33
					c-0.24,0.06-0.47,0.11-0.7,0.16c-1.18,0.27-2.37,0.61-3.52,0.93l-0.36,0.1c-1.75,0.5-3.1,0.85-4.37,1.14
					c-0.49,0.11-0.98,0.22-1.46,0.32l-0.49,0.11c-0.41,0.09-0.89,0.2-1.36,0.38c-0.61,0.23-1.08,0.52-1.47,0.93
					c-0.53,0.55-0.72,1.3-0.91,2.03l-0.02,0.09c-0.15,0.58-0.26,1.17-0.37,1.75L117,174.6c-0.14,0.77-0.28,1.55-0.42,2.34
					c-0.28,1.62-0.5,3.24-0.68,4.6c-0.49,3.7-0.82,7.49-1.13,11.15c-0.17,2.01-0.35,4.08-0.55,6.12l-0.04,0.36
					c-0.03,0.28-0.06,0.56-0.09,0.85c-0.01,0.09-0.02,0.18-0.03,0.27c-0.03,0.26-0.06,0.53-0.09,0.79c-0.23-0.4-0.42-0.76-0.59-1.1
					l-0.18-0.36c-0.58-1.16-1.18-2.36-1.74-3.56c-0.54-1.17-1.24-2.71-1.93-4.28c-0.23-0.51-0.45-1.03-0.67-1.55
					c-0.29-0.69-0.6-1.4-0.91-2.09c-0.64-1.44-1.27-2.85-1.93-4.27c-0.41-0.88-0.82-1.75-1.23-2.62l-0.5-1.06
					c-0.18-0.39-0.36-0.77-0.54-1.16c-0.42-0.92-0.86-1.86-1.32-2.78l-0.15-0.31c-0.44-0.87-0.89-1.77-1.41-2.62
					c-0.51-0.83-1.14-1.66-1.88-2.48c-0.71-0.79-1.61-1.51-2.6-2.08c-0.49-0.28-1.01-0.49-1.59-0.71c-0.44-0.16-0.89-0.25-1.28-0.32
					c-0.79-0.13-1.61-0.21-2.44-0.22c-0.1,0-0.21-0.01-0.31-0.01c-0.15-0.01-0.31-0.01-0.46-0.01c-0.07,0-0.14,0-0.22,0l-0.68,0.03
					l-0.71,0.03c-1.18,0.05-2.37,0.17-3.53,0.29l-0.72,0.07c-1.01,0.1-2.03,0.23-3.03,0.35c-0.46,0.06-0.92,0.12-1.38,0.17
					l-0.35,0.04c-1.23,0.15-2.51,0.3-3.77,0.4c-0.31,0.02-0.62,0.05-0.92,0.07c-1.09,0.09-2.22,0.18-3.33,0.24
					c-1.76,0.09-3.36,0.16-4.9,0.21c-1.08,0.03-1.98,0.05-2.83,0.05c-0.35,0-0.71,0-1.06-0.01l-1.32-0.02l-1.3-0.02
					c-0.5-0.01-1.02-0.04-1.52-0.07c-0.25-0.01-0.5-0.03-0.75-0.04c-1.28-0.06-2.57-0.2-3.55-0.31c-1.2-0.13-2.46-0.29-3.83-0.46
					l-0.4-0.06c-1.78-0.26-3.62-0.52-5.33-1.18c-0.6-0.27-1.13-0.58-1.63-0.93c-0.39-0.33-0.75-0.7-1.1-1.11
					c-0.56-0.76-1.04-1.59-1.43-2.45c-0.47-1.2-0.79-2.51-1.03-4.13c-0.15-1.23-0.25-2.57-0.32-4.21l-0.01-0.28
					c-0.05-1.32-0.11-2.68-0.12-4.02c-0.03-2.68-0.07-5.72,0-8.68l0.02-0.74c0.02-0.81,0.03-1.65,0.07-2.48
					c0.06-1.19,0.1-2.2,0.16-3.21c0.05-0.83,0.49-3.38,0.51-3.84c0.03-0.56,0.26-1.09,0.27-1.64c0.01-0.44,0.12-1.27,0.14-1.71
					c0.04-0.84,0.27-1.43,0.37-2.48l0.02-0.22c0.17-1.76,0.35-3.58,0.58-5.37c0.24-1.5,0.54-2.91,0.93-4.31
					c0.32-1.19,0.75-2.44,1.37-4.04c0.19-0.43,0.36-0.79,0.52-1.11c0.27-0.53,0.6-1.07,1.01-1.64c0.53-0.63,1.14-1.14,1.66-1.57
					c1.48-1.11,3.1-2.24,4.87-3.04c0.46-0.18,0.97-0.35,1.61-0.54c0.12-0.04,0.25-0.08,0.37-0.11c0.25-0.08,0.5-0.16,0.76-0.22
					l0.5-0.13c0.51-0.13,1.03-0.26,1.55-0.38l0.12-0.03c1.35-0.3,2.75-0.61,4.14-0.83c1.53-0.24,3.09-0.47,4.6-0.69
					c1.48-0.22,3-0.44,4.5-0.68c1.33-0.2,2.66-0.45,3.8-0.67l0.05-0.01c1.47-0.28,2.94-0.55,4.4-0.83c3.09-0.59,5.87-1.09,8.51-1.55
					c4.76-0.82,9.59-1.64,14.27-2.43l2.88-0.49c6.58-1.11,12.05-2.1,17.2-3.09l1.75-0.34c2.31-0.44,4.69-0.9,7.03-1.38
					c2.85-0.59,5.7-1.18,8.54-1.77c1.99-0.42,3.75-0.78,5.38-1.1l0.08-0.02c0.64-0.13,1.31-0.26,1.97-0.37l0.96-0.16
					c0.56-0.09,1.13-0.19,1.69-0.28l0.13-0.02C150.56,85.69,152.6,85.44,154.61,85.44L154.61,85.44 M154.61,81.44
					c-2.26,0-4.52,0.28-6.51,0.53l-0.12,0.02l-0.09,0.01l-0.09,0.01l-1.55,0.26l-0.13,0.02l-0.96,0.16
					c-0.72,0.12-1.41,0.26-2.07,0.39L143,82.85c-1.66,0.33-3.43,0.7-5.44,1.11c-2.85,0.6-5.69,1.19-8.53,1.77
					c-2.34,0.48-4.81,0.96-6.98,1.37l-1.75,0.34c-5.15,0.99-10.58,1.97-17.11,3.07l-2.88,0.49c-4.68,0.79-9.52,1.61-14.28,2.43
					c-2.68,0.46-5.49,0.97-8.58,1.56c-1.47,0.28-2.93,0.56-4.4,0.83c-1.16,0.22-2.45,0.46-3.72,0.65c-1.44,0.22-2.9,0.44-4.31,0.65
					l-0.16,0.02c-1.52,0.22-3.09,0.46-4.63,0.69c-1.53,0.24-2.99,0.56-4.4,0.88l-0.1,0.02c-0.57,0.13-1.14,0.27-1.68,0.41l-0.5,0.13
					c-0.3,0.08-0.62,0.17-0.93,0.27l-0.11,0.03l-0.23,0.07c-0.74,0.22-1.35,0.43-1.92,0.65l-0.1,0.04l-0.1,0.04
					c-2.11,0.95-3.95,2.23-5.62,3.48l-0.06,0.04l-0.06,0.05c-0.63,0.51-1.46,1.21-2.21,2.11l-0.11,0.13l-0.1,0.14
					c-0.52,0.73-0.95,1.42-1.31,2.12c-0.21,0.4-0.41,0.83-0.63,1.34l-0.03,0.07L40,109.95c-0.68,1.74-1.14,3.11-1.51,4.44
					c-0.42,1.53-0.75,3.08-1.02,4.73l-0.01,0.06l-0.01,0.06c-0.24,1.88-0.43,3.8-0.6,5.48l-0.02,0.21c-0.03,0.32-0.08,0.58-0.14,0.9
					c-0.09,0.48-0.21,1.07-0.24,1.8c-0.01,0.15-0.03,0.36-0.05,0.57c-0.04,0.37-0.08,0.76-0.09,1.12c-0.01,0.06-0.03,0.12-0.04,0.18
					c-0.08,0.34-0.18,0.81-0.22,1.38c-0.02,0.22-0.09,0.64-0.16,1.11c-0.19,1.29-0.32,2.17-0.36,2.79
					c-0.06,1.02-0.11,2.04-0.16,3.25c-0.04,0.89-0.06,1.79-0.07,2.58l-0.02,0.73c-0.07,2.99-0.03,6.03,0,8.71l0,0.1
					c0.02,1.43,0.08,2.87,0.13,4.14l0.01,0.27c0.07,1.77,0.18,3.21,0.34,4.55l0.01,0.05l0.01,0.05c0.28,1.92,0.68,3.51,1.26,5
					l0.04,0.1l0.05,0.1c0.5,1.11,1.12,2.17,1.84,3.16l0.08,0.11l0.09,0.11c0.5,0.59,1.02,1.11,1.58,1.59l0.13,0.11l0.14,0.1
					c0.7,0.5,1.45,0.93,2.28,1.31l0.11,0.05l0.12,0.04c2.13,0.82,4.29,1.13,6.19,1.41l0.4,0.06l0.03,0l0.03,0
					c1.39,0.18,2.66,0.33,3.9,0.47c1.03,0.11,2.39,0.25,3.79,0.32c0.21,0.01,0.4,0.02,0.59,0.03l0.13,0.01
					c0.58,0.03,1.13,0.07,1.68,0.08l1.3,0.02l1.32,0.02c0.38,0.01,0.76,0.01,1.13,0.01c0.91,0,1.85-0.02,2.96-0.05
					c1.59-0.05,3.22-0.12,4.97-0.21c1.19-0.06,2.39-0.16,3.45-0.25l0.32-0.03l0.59-0.05c1.33-0.11,2.64-0.26,3.9-0.41l0.38-0.05
					c0.47-0.06,0.93-0.11,1.4-0.17c0.86-0.11,1.92-0.24,2.92-0.34l0.73-0.07c1.09-0.11,2.22-0.22,3.29-0.27l0.71-0.03l0.68-0.03
					l0.05,0c0.11,0,0.21,0,0.32,0.01c0.12,0,0.24,0.01,0.37,0.01c0.64,0.01,1.27,0.07,1.86,0.17c0.27,0.05,0.45,0.09,0.55,0.12
					c0.4,0.15,0.76,0.29,0.98,0.42c0.62,0.36,1.21,0.83,1.64,1.31c0.57,0.63,1.05,1.27,1.43,1.89c0.43,0.7,0.82,1.49,1.24,2.32
					l0.16,0.31c0.42,0.84,0.84,1.74,1.24,2.6l0.03,0.06c0.18,0.39,0.36,0.79,0.55,1.18l0.5,1.06l0.06,0.12
					c0.39,0.83,0.78,1.65,1.16,2.48c0.64,1.37,1.24,2.72,1.91,4.22c0.3,0.67,0.6,1.37,0.88,2.04c0.22,0.53,0.45,1.05,0.68,1.58
					c0.72,1.65,1.46,3.27,1.96,4.34c0.57,1.24,1.18,2.46,1.77,3.64l0.02,0.04l0.18,0.36c0.19,0.38,0.41,0.8,0.67,1.26l5.98,10.67
					l1.49-12.14c0.03-0.28,0.07-0.56,0.1-0.85l0.01-0.09l0.02-0.2l0.09-0.86l0.04-0.35c0.21-2.1,0.39-4.27,0.56-6.18
					c0.31-3.61,0.63-7.34,1.11-10.96c0.19-1.41,0.4-2.92,0.66-4.46c0.13-0.77,0.27-1.54,0.41-2.29l0.04-0.22
					c0.1-0.54,0.19-1.04,0.3-1.47l0.02-0.08c0.02-0.09,0.05-0.19,0.08-0.29c0.2-0.06,0.44-0.12,0.65-0.16l0.49-0.11
					c0.5-0.11,1-0.22,1.51-0.33c1.34-0.31,2.75-0.68,4.57-1.2l0.36-0.1c1.09-0.31,2.22-0.63,3.3-0.88c0.23-0.05,0.47-0.11,0.7-0.16
					c0.47-0.11,0.91-0.22,1.35-0.3l1.31-0.25l1.33-0.26c1.02-0.19,2.05-0.38,3.05-0.56l0.06-0.01c1.74-0.32,3.5-0.63,5.24-1
					l1.22-0.25c0.96-0.2,1.93-0.4,2.89-0.61l1.13-0.25l1.46-0.33c0.52-0.12,1.05-0.25,1.56-0.39c0.27-0.07,0.5-0.13,0.73-0.19
					c0.66-0.17,1.29-0.35,1.9-0.53l0.47-0.13c0.5-0.14,1.07-0.3,1.65-0.5l0.05-0.02l1.44-0.5l0.12-0.04l0.07-0.02
					c0.24-0.08,0.5-0.17,0.76-0.27l1.85-0.75l0.07-0.03l0.07-0.03c0.69-0.31,1.43-0.66,2.15-1.09c0.59-0.35,1.17-0.74,1.73-1.14
					l0.08-0.06l0.07-0.06c0.86-0.7,1.61-1.44,2.28-2.26l0.08-0.1l0.08-0.1c0.63-0.87,1.16-1.78,1.62-2.79l0.05-0.1l0.04-0.1
					c0.59-1.52,1.01-3.18,1.31-5.24l0.01-0.05l0.01-0.05c0.17-1.37,0.25-2.72,0.33-4.02l0.05-0.86c0.02-0.36,0.03-0.71,0.04-1.05
					l0.01-0.28l0.03-1.26l0.03-1.24c0.07-3.08-0.01-6.09-0.08-9c-0.03-1.18-0.1-2.31-0.16-3.4l-0.05-0.9
					c-0.07-1.21-0.15-2.64-0.24-4.08l-0.01-0.08c-0.19-2.82-0.38-5.73-0.66-8.61c-0.04-0.44-0.08-0.89-0.12-1.33l-0.01-0.08
					c-0.09-1-0.19-2.04-0.32-3.09l-0.02-0.17l-0.53-4.2l-0.01-0.06l-0.01-0.06l-0.37-2.33l-0.3-1.9c-0.09-0.54-0.19-1.06-0.29-1.52
					c-0.05-0.22-0.09-0.42-0.13-0.63l-0.14-0.7l-0.13-0.69l0-0.03l-0.02-0.09c-0.04-0.23-0.08-0.42-0.13-0.61l-0.1-0.42l-0.54-2.13
					c-0.14-0.56-0.3-1.18-0.52-1.82l-0.3-0.91l-0.21-0.64l-0.03-0.1l-0.02-0.07c-0.06-0.2-0.15-0.49-0.28-0.81l-0.33-0.8l-0.33-0.8
					l-0.03-0.08l-0.04-0.08c-0.59-1.28-1.17-2.31-1.83-3.22l-0.08-0.1l-0.08-0.1c-0.61-0.74-1.22-1.37-1.86-1.93l-0.15-0.12
					l-0.16-0.11c-0.56-0.4-1.16-0.75-1.78-1.04l-0.17-0.08l-0.18-0.06c-0.79-0.29-1.62-0.5-2.56-0.65l-0.11-0.02l-0.11-0.01
					C156.39,81.49,155.53,81.44,154.61,81.44L154.61,81.44z"/>
			</g>
		</g>
		<g>
			<path class="st0" d="M69.99,140.15l-7.21,0.75l0.61,5.85l-7.71,0.8l-1.84-17.8l7.71-0.8l0.57,5.48l7.21-0.75l-0.57-5.48l7.71-0.8
				l1.84,17.8l-7.71,0.8L69.99,140.15z"/>
			<path class="st0" d="M87.55,137.18c0.29,1.54,1.69,2.05,3.77,1.84c2.25-0.23,3-0.84,2.93-1.56l0-0.02l7.91-0.82l0.01,0.13
				c0.36,3.45-3.15,6.42-10.51,7.18c-7.64,0.79-11.42-1.58-11.94-6.6l-0.02-0.24c-0.53-5.15,2.71-8.32,10.4-9.11
				c7.19-0.74,11.35,1.71,11.87,6.72l0.1,0.98L87.55,137.18z M87.33,134.82l6.75-0.7l-0.02-0.15c-0.1-0.96-1.1-1.7-3.55-1.44
				C88.48,132.74,87.41,133.47,87.33,134.82z"/>
			<path class="st0" d="M103.12,124.64l7.71-0.8l1.84,17.8l-7.71,0.8L103.12,124.64z"/>
			<path class="st0" d="M113.24,123.6l7.71-0.8l1.84,17.8l-7.71,0.8L113.24,123.6z"/>
			<path class="st0" d="M146.22,130.14l0.02,0.17c0.52,5-2.68,8.25-10.21,9.03c-7.54,0.78-11.33-1.74-11.85-6.74l-0.02-0.17
				c-0.52-5,2.68-8.25,10.21-9.03C141.91,122.61,145.7,125.13,146.22,130.14z M138.48,131.07l-0.01-0.09
				c-0.15-1.42-1.2-1.79-3.47-1.56s-3.23,0.82-3.08,2.24l0.01,0.09c0.15,1.42,1.2,1.8,3.47,1.56S138.62,132.49,138.48,131.07z"/>
			<path class="st0" d="M147.39,120.06l6.51-0.67l0.47,9.69l-5.46,0.57L147.39,120.06z M149.54,137.83l-0.6-5.77l5.94-0.62l0.6,5.77
				L149.54,137.83z"/>
		</g>
	</g>
</g>
</svg>
