<?xml version="1.0" encoding="utf-8"?>
<!-- Generator: Adobe Illustrator 26.5.0, SVG Export Plug-In . SVG Version: 6.00 Build 0)  -->
<svg version="1.1" id="Layer_1" xmlns="http://www.w3.org/2000/svg" xmlns:xlink="http://www.w3.org/1999/xlink" x="0px" y="0px"
	 viewBox="0 0 824 384.5" style="enable-background:new 0 0 824 384.5;" xml:space="preserve">
<style type="text/css">
	.st0{fill:#ECE9E4;}
	.st1{fill:#ED1C24;}
</style>
<g>
	<g>
		<g>
			<path class="st0" d="M12.35,25.04h23.52v84.27h71.07v22.21H12.35V25.04z"/>
			<path class="st0" d="M132.15,91.28c1.83,16.07,11.89,21.69,32.66,21.69c18.16,0,31.36-4.57,31.36-16.2V96.5h23.78v0.26
				c0,19.86-16.33,35.41-55.79,35.41c-38.54,0-55.92-16.72-55.92-45.73V85.4c0-30.96,17.51-48.6,56.05-48.6
				c37.89,0,55.66,16.07,55.66,42.07v12.41H132.15z M133.07,72.59h62.97c-2.09-12.15-12.28-17.12-32.27-17.12
				C146.13,55.48,136.2,60.18,133.07,72.59z"/>
			<path class="st0" d="M244.77,131.51V56.26h-22.6V37.45h22.6V26.74h23.52v10.71h32.4v18.81h-32.4v75.25H244.77z"/>
			<path class="st0" d="M310.1,56l4.83-13.46h-6.27V25.04h20.25v17.51L323.03,56H310.1z"/>
			<path class="st0" d="M383.78,132.17c-36.58,0-53.43-10.58-53.43-32.27v-0.52h22.73v1.57c0,9.54,6.53,14.63,30.96,14.63
				c23.91,0,30.31-3.53,30.31-10.84v-0.52c0-7.45-6.01-10.71-29-10.71c-40.89,0-55-5.88-55-26.65v-0.52
				c0-19.21,17.38-29.53,53.43-29.53c35.27,0,52.78,12.41,52.78,32.53v1.04h-22.6v-1.83c0-9.8-8.23-15.15-30.7-15.15
				c-23.78,0-30.57,4.96-30.57,11.24v0.39c0,6.27,4.44,9.41,30.83,9.41c41.55,0,53.56,7.45,53.56,27.57v1.05
				C437.08,120.02,422.45,132.17,383.78,132.17z"/>
			<path class="st0" d="M503.32,131.51V56.26h-22.6V37.45h22.6V26.74h23.52v10.71h32.4v18.81h-32.4v75.25H503.32z"/>
			<path class="st0" d="M587.07,72.33h-23.78v-0.52c0-22.34,18.42-35.01,49.51-35.01c34.75,0,50.17,10.45,50.17,35.67v59.05h-23.39
				v-23.25c0,9.67-10.06,23.91-39.06,23.91c-26.78,0-41.55-6.27-41.55-24.69v-1.18c0-27.7,35.8-27.04,80.61-33.45v-0.13
				c0-10.97-5.75-16.2-27.7-16.2c-18.16,0-24.82,5.23-24.82,15.42V72.33z M603.14,116.75c18.55,0,36.45-1.96,36.45-12.67V90.62
				c-43.5,4.83-57.09,7.19-57.09,15.55v0.52C582.5,112.96,587.46,116.75,603.14,116.75z"/>
			<path class="st0" d="M672.91,25.04h23.52v106.48h-23.52V25.04z"/>
			<path class="st0" d="M706.22,25.04h23.52v56.83l49.65-44.42h30.96l-53.17,45.99l54.48,48.08h-32.01l-49.91-44.68v44.68h-23.52
				V25.04z"/>
			<path class="st0" d="M98.25,181.67h57.48c48.21,0,65.32,20.38,65.32,52.13v2.61c0,31.49-17.12,51.74-65.32,51.74H98.25V181.67z
				 M121.76,202.97v64.02h32.66c27.57,0,43.11-7.58,43.11-31.22v-1.18c0-23.78-15.55-31.62-43.11-31.62H121.76z"/>
			<path class="st0" d="M253.98,247.91c1.83,16.07,11.89,21.69,32.66,21.69c18.16,0,31.36-4.57,31.36-16.2v-0.26h23.78v0.26
				c0,19.86-16.33,35.41-55.79,35.41c-38.54,0-55.92-16.72-55.92-45.73v-1.04c0-30.96,17.51-48.6,56.05-48.6
				c37.89,0,55.66,16.07,55.66,42.07v12.41H253.98z M254.89,229.22h62.97c-2.09-12.15-12.28-17.12-32.27-17.12
				C267.96,212.11,258.03,216.81,254.89,229.22z"/>
			<path class="st0" d="M403.31,288.8c-36.58,0-53.43-10.58-53.43-32.27v-0.52h22.73v1.57c0,9.54,6.53,14.63,30.96,14.63
				c23.91,0,30.31-3.53,30.31-10.84v-0.52c0-7.45-6.01-10.71-29-10.71c-40.89,0-55-5.88-55-26.65v-0.52
				c0-19.21,17.38-29.53,53.43-29.53c35.27,0,52.78,12.41,52.78,32.53V227h-22.6v-1.83c0-9.8-8.23-15.15-30.7-15.15
				c-23.78,0-30.57,4.96-30.57,11.24v0.39c0,6.27,4.44,9.41,30.83,9.41c41.55,0,53.56,7.45,53.56,27.57v1.05
				C456.61,276.65,441.98,288.8,403.31,288.8z"/>
			<path class="st0" d="M465.11,180.62h23.52v10.19h-23.52V180.62z M465.11,194.08h23.52v94.06h-23.52V194.08z"/>
			<path class="st0" d="M609.87,194.08v71.46c0,18.81-13.85,29.79-54.87,29.79c-38.54,0-52.91-9.15-52.91-24.3v-2.09h22.73v0.39
				c0,9.54,9.01,11.76,30.31,11.76c21.95,0,31.22-3.4,31.22-15.42v-22.73c0,10.45-9.8,24.82-39.06,24.82
				c-34.1,0-49.12-12.41-49.12-35.41v-2.74c0-23.39,15.02-36.19,49.12-36.19c29.26,0,39.06,14.5,39.06,24.82v-24.17H609.87z
				 M554.34,210.28c-21.95,0-32.66,5.23-32.66,20.12v1.31c0,14.37,10.06,19.34,32.66,19.34c16.72,0,32.01-2.35,32.01-12.15v-16.46
				C586.35,212.76,571.06,210.28,554.34,210.28z"/>
			<path class="st0" d="M643.18,224c0-15.42,9.41-30.57,37.63-30.57c27.04,0,42.85,12.93,42.85,37.89v56.83h-23.52v-53.96
				c0-12.28-7.71-20.38-28.09-20.38c-13.98,0-28.87,2.88-28.87,14.5v59.84h-23.52v-94.06h23.52V224z"/>
		</g>
	</g>
	<g>
		<g>
			<g>
				<path class="st1" d="M276.52,343.14c28.04-4.01,56.22-7.01,84.47-9.01c28.14-1.99,56.35-3,84.56-3
					c15.87,0,31.75,0.32,47.61,0.94c1.93,0.08,1.93-2.92,0-3c-28.43-1.13-56.91-1.25-85.35-0.35c-28.28,0.89-56.52,2.79-84.67,5.69
					c-15.84,1.63-31.65,3.58-47.41,5.83C273.82,340.52,274.63,343.41,276.52,343.14L276.52,343.14z"/>
			</g>
		</g>
		<g>
			<g>
				<path class="st1" d="M497.69,311.89c12.62,9.28,26.23,17.19,40.57,23.51c4.03,1.78,8.11,3.43,12.23,4.96
					c0.27-0.96,0.53-1.93,0.8-2.89c-20.57-3.85-42.29,0.01-60.39,10.48c-5.14,2.97-9.96,6.49-14.38,10.46
					c-1.44,1.29,0.69,3.41,2.12,2.12c14.96-13.44,34.84-21.08,54.91-21.53c5.68-0.13,11.35,0.32,16.94,1.36
					c1.91,0.36,2.61-2.22,0.8-2.89c-14.42-5.36-28.24-12.29-41.17-20.64c-3.71-2.4-7.35-4.91-10.91-7.53
					C497.65,308.15,496.15,310.75,497.69,311.89L497.69,311.89z"/>
			</g>
		</g>
	</g>
</g>
</svg>
