<?xml version="1.0" encoding="utf-8"?>
<!-- Generator: Adobe Illustrator 26.5.0, SVG Export Plug-In . SVG Version: 6.00 Build 0)  -->
<svg version="1.1" id="Layer_1" xmlns="http://www.w3.org/2000/svg" xmlns:xlink="http://www.w3.org/1999/xlink" x="0px" y="0px"
	 viewBox="0 0 855.18 368.69" style="enable-background:new 0 0 855.18 368.69;" xml:space="preserve">
<style type="text/css">
	.st0{fill:#ECE9E4;}
	.st1{fill:#ED1C24;}
</style>
<g>
	<g>
		<path class="st0" d="M0,0h25.16v90.16h76.04v23.76H0V0z"/>
		<path class="st0" d="M128.18,70.87c1.96,17.19,12.72,23.2,34.95,23.2c19.43,0,33.55-4.89,33.55-17.33v-0.28h25.44v0.28
			c0,21.25-17.47,37.88-59.69,37.88c-41.24,0-59.83-17.89-59.83-48.93v-1.12c0-33.13,18.73-52,59.97-52
			c40.54,0,59.55,17.19,59.55,45.01v13.28H128.18z M129.16,50.88h67.38c-2.24-13-13.14-18.31-34.53-18.31
			C143.14,32.57,132.52,37.6,129.16,50.88z"/>
		<path class="st0" d="M248.67,113.93V33.41h-24.18V13.28h24.18V1.82h25.16v11.46h34.67v20.13h-34.67v80.52H248.67z"/>
		<path class="st0" d="M318.56,33.13l5.17-14.4h-6.71V0h21.67v18.73l-6.29,14.4H318.56z"/>
		<path class="st0" d="M397.4,114.62c-39.14,0-57.17-11.32-57.17-34.53v-0.56h24.32v1.68c0,10.2,6.99,15.66,33.13,15.66
			c25.58,0,32.43-3.77,32.43-11.6v-0.56c0-7.97-6.43-11.46-31.03-11.46c-43.75,0-58.85-6.29-58.85-28.52v-0.56
			c0-20.55,18.59-31.59,57.17-31.59c37.74,0,56.47,13.28,56.47,34.81v1.12h-24.18v-1.96c0-10.48-8.81-16.21-32.85-16.21
			c-25.44,0-32.71,5.31-32.71,12.02v0.42c0,6.71,4.75,10.07,32.99,10.07c44.45,0,57.31,7.97,57.31,29.49v1.12
			C454.43,101.62,438.78,114.62,397.4,114.62z"/>
		<path class="st0" d="M525.3,113.93V33.41h-24.18V13.28h24.18V1.82h25.16v11.46h34.67v20.13h-34.67v80.52H525.3z"/>
		<path class="st0" d="M614.9,50.6h-25.44v-0.56c0-23.9,19.71-37.46,52.98-37.46c37.18,0,53.68,11.18,53.68,38.16v63.18h-25.02
			V89.04c0,10.34-10.76,25.58-41.8,25.58c-28.66,0-44.45-6.71-44.45-26.42v-1.26c0-29.63,38.3-28.94,86.25-35.79v-0.14
			c0-11.74-6.15-17.33-29.63-17.33c-19.43,0-26.56,5.59-26.56,16.5V50.6z M632.09,98.13c19.85,0,39-2.1,39-13.56v-14.4
			C624.54,75.34,610,77.86,610,86.81v0.56C610,94.08,615.32,98.13,632.09,98.13z"/>
		<path class="st0" d="M706.73,0h25.16v113.93h-25.16V0z"/>
		<path class="st0" d="M742.38,0h25.16v60.81l53.12-47.53h33.13l-56.89,49.2l58.29,51.44h-34.25l-53.4-47.81v47.81h-25.16V0z"/>
		<path class="st0" d="M91.91,167.58h61.51c51.58,0,69.89,21.81,69.89,55.77v2.8c0,33.69-18.31,55.36-69.89,55.36H91.91V167.58z
			 M117.07,190.36v68.5h34.95c29.49,0,46.13-8.11,46.13-33.41v-1.26c0-25.44-16.63-33.83-46.13-33.83H117.07z"/>
		<path class="st0" d="M258.53,238.45c1.96,17.19,12.72,23.2,34.95,23.2c19.43,0,33.55-4.89,33.55-17.33v-0.28h25.44v0.28
			c0,21.25-17.47,37.88-59.69,37.88c-41.24,0-59.83-17.89-59.83-48.93v-1.12c0-33.13,18.73-52,59.97-52
			c40.54,0,59.55,17.19,59.55,45.01v13.28H258.53z M259.5,218.46h67.38c-2.24-13-13.14-18.31-34.53-18.31
			C273.48,200.15,262.86,205.18,259.5,218.46z"/>
		<path class="st0" d="M418.3,282.2c-39.14,0-57.17-11.32-57.17-34.53v-0.56h24.32v1.68c0,10.2,6.99,15.66,33.13,15.66
			c25.58,0,32.43-3.77,32.43-11.6v-0.56c0-7.97-6.43-11.46-31.03-11.46c-43.75,0-58.85-6.29-58.85-28.52v-0.56
			c0-20.55,18.59-31.59,57.17-31.59c37.74,0,56.47,13.28,56.47,34.81v1.12h-24.18v-1.96c0-10.48-8.81-16.21-32.85-16.21
			c-25.44,0-32.71,5.31-32.71,12.02v0.42c0,6.71,4.75,10.07,32.99,10.07c44.45,0,57.31,7.97,57.31,29.49v1.12
			C475.33,269.2,459.67,282.2,418.3,282.2z"/>
		<path class="st0" d="M484.41,166.46h25.16v10.9h-25.16V166.46z M484.41,180.86h25.16V281.5h-25.16V180.86z"/>
		<path class="st0" d="M639.29,180.86v76.46c0,20.13-14.82,31.87-58.71,31.87c-41.24,0-56.61-9.79-56.61-26v-2.24h24.32v0.42
			c0,10.2,9.65,12.58,32.43,12.58c23.48,0,33.41-3.63,33.41-16.49v-24.32c0,11.18-10.48,26.56-41.8,26.56
			c-36.48,0-52.56-13.28-52.56-37.88v-2.94c0-25.02,16.08-38.72,52.56-38.72c31.31,0,41.8,15.52,41.8,26.56v-25.86H639.29z
			 M579.88,198.19c-23.48,0-34.95,5.59-34.95,21.53v1.4c0,15.38,10.76,20.69,34.95,20.69c17.89,0,34.25-2.52,34.25-13v-17.61
			C614.13,200.85,597.78,198.19,579.88,198.19z"/>
		<path class="st0" d="M674.93,212.87c0-16.5,10.06-32.71,40.26-32.71c28.94,0,45.85,13.84,45.85,40.54v60.81h-25.16v-57.73
			c0-13.14-8.25-21.81-30.05-21.81c-14.96,0-30.89,3.08-30.89,15.52v64.02h-25.16V180.86h25.16V212.87z"/>
	</g>
	<g>
		<g>
			<g>
				<path class="st1" d="M281.82,349.56c14.45-2.07,29.27-3.92,44.32-5.52c15.04-1.6,30.11-2.94,45.2-4.01
					c30.18-2.14,60.43-3.21,90.69-3.21c16.94,0,33.87,0.34,50.79,1.01c2.35,0.09,4.61-2.14,4.5-4.5c-0.11-2.52-1.98-4.4-4.5-4.5
					c-30.4-1.2-60.83-1.33-91.23-0.37c-30.24,0.95-60.44,2.98-90.54,6.07c-17.25,1.77-34.46,3.9-51.62,6.36
					c-2.34,0.33-3.83,3.43-3.14,5.54C277.11,348.98,279.31,349.92,281.82,349.56L281.82,349.56z"/>
			</g>
		</g>
		<g>
			<g>
				<path class="st1" d="M516.22,315.83c13.49,9.93,28.05,18.38,43.37,25.14c4.55,2.01,9.15,3.88,13.81,5.62
					c0.8-2.89,1.6-5.79,2.39-8.68c-22.8-4.28-46.8-0.1-66.88,11.52c-5.69,3.3-11.04,7.22-15.93,11.62c-1.76,1.58-1.73,4.78,0,6.36
					c1.88,1.72,4.49,1.68,6.36,0c0.98-0.88,1.98-1.75,3-2.59c0.51-0.42,1.03-0.83,1.54-1.24c0.68-0.53,0.17-0.13,0.03-0.02
					c0.42-0.32,0.84-0.64,1.27-0.95c2.12-1.56,4.32-3.03,6.57-4.4c2.25-1.37,4.57-2.64,6.93-3.82c1.18-0.59,2.38-1.15,3.58-1.68
					c0.3-0.13,0.61-0.26,0.91-0.4c0.71-0.32-0.98,0.4,0.2-0.09c0.73-0.3,1.47-0.6,2.21-0.88c4.93-1.9,10.02-3.38,15.19-4.43
					c1.29-0.26,2.59-0.5,3.9-0.71c0.65-0.1,1.3-0.2,1.96-0.29c-0.9,0.13-0.2,0.03-0.02,0.01c0.52-0.06,1.05-0.13,1.57-0.18
					c2.62-0.28,5.26-0.45,7.9-0.51c3.03-0.07,6.07,0.02,9.09,0.26c1.45,0.11,2.89,0.27,4.33,0.45c-0.95-0.12-0.06-0.01,0.18,0.03
					c0.46,0.07,0.91,0.14,1.37,0.21c0.78,0.13,1.56,0.27,2.34,0.41c2.31,0.43,4.97-0.64,5.54-3.14c0.58-2.55-0.78-4.66-3.14-5.54
					c-1.97-0.73-3.93-1.49-5.88-2.27c-0.91-0.36-1.81-0.74-2.71-1.11c-0.48-0.2-0.05-0.02,0.04,0.02c-0.21-0.09-0.41-0.18-0.62-0.26
					c-0.55-0.24-1.1-0.47-1.65-0.71c-3.78-1.65-7.53-3.41-11.22-5.26c-7.38-3.71-14.56-7.82-21.49-12.3
					c-3.91-2.53-7.74-5.18-11.49-7.94c-1.9-1.4-5.1-0.38-6.16,1.61C513.36,312.02,514.19,314.33,516.22,315.83L516.22,315.83z"/>
			</g>
		</g>
	</g>
</g>
</svg>
