<?xml version="1.0" encoding="utf-8"?>
<!-- Generator: Adobe Illustrator 26.5.0, SVG Export Plug-In . SVG Version: 6.00 Build 0)  -->
<svg version="1.1" id="Layer_1" xmlns="http://www.w3.org/2000/svg" xmlns:xlink="http://www.w3.org/1999/xlink" x="0px" y="0px"
	 viewBox="0 0 667.85 19.38" style="enable-background:new 0 0 667.85 19.38;" xml:space="preserve">
<style type="text/css">
	.st0{fill:#666666;}
</style>
<g>
	<path class="st0" d="M20.97,9.25V9.3c0,4.75-3.42,7.9-10.46,7.9C3.44,17.2,0,13.65,0,8.8V8.4C0,3.54,3.44,0,10.51,0
		c7.04,0,10.46,3.15,10.46,7.9v0.04h-2.52V7.86c0-3.5-2.65-5.34-8.05-5.34c-5.77,0-7.86,2.23-7.86,5.92v0.31
		c0,3.69,2.08,5.92,7.86,5.92c5.4,0,8.05-1.83,8.05-5.34V9.25H20.97z"/>
	<path class="st0" d="M38,9.28H25.11v7.82h-2.54V0.1h2.54v6.82H38V0.1h2.54v16.99H38V9.28z"/>
	<path class="st0" d="M50.59,9.59h-5.57v7.5h-2.54V0.1h8.4c5.29,0,7,1.71,7,4.65v0.19c0,2.33-1.19,3.94-4.4,4.46l4.67,7.69h-3.06
		L50.59,9.59z M45.03,2.63v4.44h6.13c2.94,0,4.19-0.4,4.19-2.17v-0.1c0-1.77-1.25-2.17-4.19-2.17H45.03z"/>
	<path class="st0" d="M59.4,0.1h2.54v16.99H59.4V0.1z"/>
	<path class="st0" d="M73.12,14.67c4.79,0,6.98-0.73,6.98-2.58v-0.13c0-1.71-1.31-2.46-6.44-2.46c-8,0-9.78-1.44-9.78-4.44V4.92
		c0-2.86,2.5-4.92,9.15-4.92C79.14,0,82,2.29,82,5.57v0.06h-2.5V5.54c0-1.77-2.02-3.02-6.52-3.02c-4.65,0-6.54,0.81-6.54,2.25v0.06
		c0,1.52,0.79,2.23,6.71,2.23c7.4,0,9.5,1.35,9.5,4.94v0.12c0,3.42-3.36,5.07-9.59,5.07c-6.67,0-9.59-2.11-9.59-6.61V10.5h2.54v0.1
		C66.01,13.49,68.41,14.67,73.12,14.67z"/>
	<path class="st0" d="M99.51,14.67c4.79,0,6.98-0.73,6.98-2.58v-0.13c0-1.71-1.31-2.46-6.44-2.46c-8,0-9.78-1.44-9.78-4.44V4.92
		c0-2.86,2.5-4.92,9.15-4.92c6.11,0,8.96,2.29,8.96,5.57v0.06h-2.5V5.54c0-1.77-2.02-3.02-6.52-3.02c-4.65,0-6.54,0.81-6.54,2.25
		v0.06c0,1.52,0.79,2.23,6.71,2.23c7.4,0,9.5,1.35,9.5,4.94v0.12c0,3.42-3.36,5.07-9.59,5.07c-6.67,0-9.59-2.11-9.59-6.61V10.5h2.54
		v0.1C92.4,13.49,94.8,14.67,99.51,14.67z"/>
	<path class="st0" d="M110.62,0.1h2.54v16.99h-2.54V0.1z"/>
	<path class="st0" d="M125.21,17.2c-7.44,0-10.48-3.19-10.48-8.57V8.57c0-5.38,3.04-8.57,10.48-8.57c7.44,0,10.48,3.19,10.48,8.57
		v0.06C135.69,14.01,132.65,17.2,125.21,17.2z M125.21,2.52c-5.44,0-7.94,1.56-7.94,6.04v0.06c0,4.48,2.5,6.04,7.94,6.04
		c5.44,0,7.94-1.56,7.94-6.04V8.57C133.15,4.09,130.65,2.52,125.21,2.52z"/>
	<path class="st0" d="M155.06,0.1v7.36c0,6.65-2.69,9.73-9,9.73c-6.21,0-8.96-2.88-8.96-9.73V0.1h2.54v7.82
		c0,4.67,1.94,6.75,6.36,6.75c4.38,0,6.52-1.96,6.52-6.75V0.1H155.06z"/>
	<path class="st0" d="M159.35,2.92v14.17h-2.54V0.1h3.21l12.19,13.49V0.1h2.54v16.99h-2.81L159.35,2.92z"/>
	<path class="st0" d="M186.2,2.65v14.44h-2.54V2.65h-7.59V0.1h17.7v2.54H186.2z"/>
	<path class="st0" d="M206.62,12.53h-10.19l-2.23,4.56h-2.77l8.4-16.99h3.4l8.44,16.99h-2.81L206.62,12.53z M205.41,10l-3.88-7.98
		l-3.9,7.98H205.41z"/>
	<path class="st0" d="M221.41,14.67c4.79,0,6.98-0.73,6.98-2.58v-0.13c0-1.71-1.31-2.46-6.44-2.46c-8,0-9.78-1.44-9.78-4.44V4.92
		c0-2.86,2.5-4.92,9.15-4.92c6.11,0,8.96,2.29,8.96,5.57v0.06h-2.5V5.54c0-1.77-2.02-3.02-6.52-3.02c-4.65,0-6.54,0.81-6.54,2.25
		v0.06c0,1.52,0.79,2.23,6.71,2.23c7.4,0,9.5,1.35,9.5,4.94v0.12c0,3.42-3.36,5.07-9.59,5.07c-6.67,0-9.59-2.11-9.59-6.61V10.5h2.54
		v0.1C214.3,13.49,216.7,14.67,221.41,14.67z"/>
	<path class="st0" d="M239.21,9.78c0-5.4,3.65-9.57,10.48-9.57c6.86,0,10.46,4.17,10.46,9.57s-3.61,9.61-10.46,9.61
		C242.86,19.38,239.21,15.17,239.21,9.78z M257.89,9.78c0-4.75-3.21-7.29-8.19-7.29c-4.98,0-8.23,2.56-8.23,7.29
		c0,4.75,3.27,7.34,8.23,7.34C254.66,17.11,257.89,14.53,257.89,9.78z M249.72,5.19c3.52,0,5.73,1.12,6.02,3.94h-3
		c-0.27-1.27-1.75-1.48-3.02-1.48c-1.61,0-3.11,0.31-3.11,2.15c0,1.83,1.5,2.15,3.11,2.15c1.27,0,2.75-0.21,3.02-1.48h3
		c-0.29,2.81-2.5,3.94-6.02,3.94c-3.79,0-6.07-1.31-6.07-4.61C243.65,6.5,245.92,5.19,249.72,5.19z"/>
	<path class="st0" d="M285.47,5.79c0-2.15-2.13-3.27-6.9-3.27c-5.48,0-7.57,1.27-7.57,4.63v0.04h-2.54V7.15
		c0-4.52,3.19-7.15,10.13-7.15c6.44,0,9.42,2.33,9.42,5.71v0.15c0,3.88-1.56,5-13.65,8.71h13.9v2.52h-19.51v-2.92
		c15.86-5.23,16.72-5.92,16.72-8.28V5.79z"/>
	<path class="st0" d="M310.33,8.57v0.06c0,5.38-3.04,8.57-10.48,8.57c-7.44,0-10.48-3.19-10.48-8.57V8.57
		c0-5.38,3.04-8.57,10.48-8.57C307.29,0,310.33,3.19,310.33,8.57z M291.91,8.57v0.06c0,4.48,2.5,6.04,7.94,6.04
		c5.44,0,7.94-1.56,7.94-6.04V8.57c0-4.48-2.5-6.04-7.94-6.04C294.41,2.52,291.91,4.09,291.91,8.57z"/>
	<path class="st0" d="M328.61,5.79c0-2.15-2.13-3.27-6.9-3.27c-5.48,0-7.57,1.27-7.57,4.63v0.04h-2.54V7.15
		c0-4.52,3.19-7.15,10.13-7.15c6.44,0,9.42,2.33,9.42,5.71v0.15c0,3.88-1.56,5-13.65,8.71h13.9v2.52H311.9v-2.92
		c15.86-5.23,16.72-5.92,16.72-8.28V5.79z"/>
	<path class="st0" d="M347.69,13.99h-15.22v-2.36L346.08,0.1h4.17v11.34h3.02v2.54h-3.02v3.11h-2.56V13.99z M347.69,11.44v-9.8
		l-11.57,9.8H347.69z"/>
	<path class="st0" d="M375.41,12.53h-10.19l-2.23,4.56h-2.77l8.4-16.99h3.4l8.44,16.99h-2.81L375.41,12.53z M374.2,10l-3.88-7.98
		l-3.9,7.98H374.2z"/>
	<path class="st0" d="M381.63,0.1h2.54v14.46h11.71v2.52h-14.26V0.1z"/>
	<path class="st0" d="M397.17,0.1h2.54v14.46h11.71v2.52h-14.26V0.1z"/>
	<path class="st0" d="M426.81,9.59h-5.57v7.5h-2.54V0.1h8.4c5.29,0,7,1.71,7,4.65v0.19c0,2.33-1.19,3.94-4.4,4.46l4.67,7.69h-3.06
		L426.81,9.59z M421.24,2.63v4.44h6.13c2.94,0,4.19-0.4,4.19-2.17v-0.1c0-1.77-1.25-2.17-4.19-2.17H421.24z"/>
	<path class="st0" d="M435.62,0.1h2.54v16.99h-2.54V0.1z"/>
	<path class="st0" d="M439.73,8.75V8.44c0-4.86,3.44-8.44,10.5-8.44c6.92,0,10.46,3.02,10.46,6.71v0.06h-2.52V6.71
		c0-2.61-3.29-4.19-8.04-4.19c-5.77,0-7.86,2.27-7.86,5.96v0.23c0,3.69,2.08,5.96,7.86,5.96c4.11,0,7.57-0.81,7.88-4.63h-7.71V7.5
		h10.4v9.59h-1.81l-0.44-3.25c-1.12,2.08-3.98,3.36-8.21,3.36C442.46,17.2,439.73,13.67,439.73,8.75z"/>
	<path class="st0" d="M478.05,9.28h-12.88v7.82h-2.54V0.1h2.54v6.82h12.88V0.1h2.54v16.99h-2.54V9.28z"/>
	<path class="st0" d="M492.03,2.65v14.44h-2.54V2.65h-7.59V0.1h17.7v2.54H492.03z"/>
	<path class="st0" d="M510.13,14.67c4.79,0,6.98-0.73,6.98-2.58v-0.13c0-1.71-1.31-2.46-6.44-2.46c-8,0-9.78-1.44-9.78-4.44V4.92
		c0-2.86,2.5-4.92,9.15-4.92c6.11,0,8.96,2.29,8.96,5.57v0.06h-2.5V5.54c0-1.77-2.02-3.02-6.52-3.02c-4.65,0-6.54,0.81-6.54,2.25
		v0.06c0,1.52,0.79,2.23,6.71,2.23c7.4,0,9.5,1.35,9.5,4.94v0.12c0,3.42-3.36,5.07-9.59,5.07c-6.67,0-9.59-2.11-9.59-6.61V10.5h2.54
		v0.1C503.02,13.49,505.42,14.67,510.13,14.67z"/>
	<path class="st0" d="M534.98,9.59h-5.57v7.5h-2.54V0.1h8.4c5.29,0,7,1.71,7,4.65v0.19c0,2.33-1.19,3.94-4.4,4.46l4.67,7.69h-3.06
		L534.98,9.59z M529.41,2.63v4.44h6.13c2.94,0,4.19-0.4,4.19-2.17v-0.1c0-1.77-1.25-2.17-4.19-2.17H529.41z"/>
	<path class="st0" d="M558.13,17.09h-14.38V0.1h14.38v2.54h-11.84v4.06h11.46v2.54h-11.46v5.29h11.84V17.09z"/>
	<path class="st0" d="M568.74,14.67c4.79,0,6.98-0.73,6.98-2.58v-0.13c0-1.71-1.31-2.46-6.44-2.46c-8,0-9.78-1.44-9.78-4.44V4.92
		c0-2.86,2.5-4.92,9.15-4.92c6.11,0,8.96,2.29,8.96,5.57v0.06h-2.5V5.54c0-1.77-2.02-3.02-6.52-3.02c-4.65,0-6.54,0.81-6.54,2.25
		v0.06c0,1.52,0.79,2.23,6.71,2.23c7.4,0,9.51,1.35,9.51,4.94v0.12c0,3.42-3.36,5.07-9.59,5.07c-6.67,0-9.59-2.11-9.59-6.61V10.5
		h2.54v0.1C561.63,13.49,564.03,14.67,568.74,14.67z"/>
	<path class="st0" d="M594.24,17.09h-14.38V0.1h14.38v2.54H582.4v4.06h11.46v2.54H582.4v5.29h11.84V17.09z"/>
	<path class="st0" d="M603.92,9.59h-5.57v7.5h-2.54V0.1h8.4c5.29,0,7,1.71,7,4.65v0.19c0,2.33-1.19,3.94-4.4,4.46l4.67,7.69h-3.06
		L603.92,9.59z M598.35,2.63v4.44h6.13c2.94,0,4.19-0.4,4.19-2.17v-0.1c0-1.77-1.25-2.17-4.19-2.17H598.35z"/>
	<path class="st0" d="M621.75,15.17l7.32-15.07h2.81l-8.44,16.99h-3.4l-8.4-16.99h2.77L621.75,15.17z"/>
	<path class="st0" d="M647.44,17.09h-14.38V0.1h14.38v2.54H635.6v4.06h11.46v2.54H635.6v5.29h11.84V17.09z"/>
	<path class="st0" d="M649.01,0.1h8.75c7.48,0,10.09,3.48,10.09,8.36v0.27c0,4.88-2.61,8.36-10.09,8.36h-8.75V0.1z M651.55,2.65
		v11.92h5.77c5.04,0,7.98-1.46,7.98-5.9V8.53c0-4.4-2.94-5.88-7.98-5.88H651.55z"/>
</g>
</svg>
