<?xml version="1.0" encoding="utf-8"?>
<!-- Generator: Adobe Illustrator 26.5.0, SVG Export Plug-In . SVG Version: 6.00 Build 0)  -->
<svg version="1.1" id="Layer_1" xmlns="http://www.w3.org/2000/svg" xmlns:xlink="http://www.w3.org/1999/xlink" x="0px" y="0px"
	 viewBox="0 0 1287.58 588.61" style="enable-background:new 0 0 1287.58 588.61;" xml:space="preserve">
<style type="text/css">
	.st0{fill:#ED1C24;}
	.st1{fill:#ECE9E4;}
	.st2{fill:#1A1A1A;}
</style>
<g>
	<g>
		<g>
			<g>
				<path class="st0" d="M235.29,543.04c106.55,1.32,213.1,1.73,319.65,1.22c106.01-0.51,212.01-1.92,318-4.23
					c59.79-1.31,119.57-2.91,179.34-4.79c5.78-0.18,5.8-9.18,0-9c-106.5,3.35-213.03,5.8-319.57,7.32
					c-106,1.52-212.01,2.13-318.02,1.84c-59.8-0.17-119.6-0.62-179.4-1.36C229.5,533.97,229.5,542.97,235.29,543.04L235.29,543.04z"
					/>
			</g>
		</g>
		<g>
			<g>
				<path class="st0" d="M339.72,570.48c80.08-6.68,160.24-12.44,240.46-17.26c79.81-4.79,159.67-8.66,239.57-11.61
					c44.84-1.65,89.69-3.01,134.55-4.08c5.78-0.14,5.8-9.14,0-9c-80.34,1.92-160.65,4.77-240.92,8.55
					c-79.86,3.77-159.68,8.46-239.44,14.07c-44.76,3.15-89.5,6.6-134.22,10.33C333.99,561.96,333.94,570.96,339.72,570.48
					L339.72,570.48z"/>
			</g>
		</g>
	</g>
	<g>
		<path class="st1" d="M14.07,18.11h27.45l30.68,93.36l31.12-93.36h35.67l31.12,94.09l32-94.09h27.01l-41.54,119.63h-34.2
			l-32.88-98.79l-33.17,98.79H54.14L14.07,18.11z"/>
		<path class="st1" d="M248.78,92.53c2.06,18.06,13.36,24.37,36.7,24.37c20.4,0,35.23-5.14,35.23-18.2V98.4h26.72v0.29
			c0,22.31-18.35,39.78-62.68,39.78c-43.3,0-62.83-18.79-62.83-51.38v-1.17c0-34.79,19.67-54.61,62.97-54.61
			c42.57,0,62.53,18.06,62.53,47.27v13.94H248.78z M249.81,71.54h70.75c-2.35-13.65-13.8-19.23-36.26-19.23
			C264.49,52.31,253.33,57.6,249.81,71.54z"/>
		<path class="st1" d="M358.14,18.11h26.42v119.63h-26.42V18.11z"/>
		<path class="st1" d="M520.63,89.3v3.08c0,28.48-19.38,46.09-62.68,46.09c-44.04,0-62.83-20.11-62.83-53.14v-0.88
			c0-33.03,18.79-53.14,62.83-53.14c43.3,0,62.68,17.61,62.68,46.09v3.08h-26.42v-1.17c0-17.91-11.45-24.37-36.55-24.37
			c-24.81,0-35.96,7.49-35.96,29.65v0.59c0,22.17,11.16,29.65,35.96,29.65c25.1,0,36.55-6.46,36.55-24.37V89.3H520.63z"/>
		<path class="st1" d="M655.97,84.46v0.88c0,33.03-18.5,53.14-62.53,53.14c-44.04,0-62.68-20.11-62.68-53.14v-0.88
			c0-33.03,18.64-53.14,62.68-53.14C637.48,31.32,655.97,51.43,655.97,84.46z M629.55,85.19v-0.59c0-22.02-11.16-29.65-36.11-29.65
			s-36.11,7.63-36.11,29.65v0.59c0,22.02,11.16,29.65,36.11,29.65S629.55,107.21,629.55,85.19z"/>
		<path class="st1" d="M693.11,65.82c0-17.32,10.57-34.5,42.28-34.5c27.16,0,44.33,11.89,47.56,34.5
			c1.47-17.32,12.77-34.5,43.01-34.5c30.39,0,48.15,14.83,48.15,42.72v63.71h-26.42V77.27c0-12.48-6.9-23.05-32.73-23.05
			c-13.21,0-29.8,3.08-31.41,17.91c0,0.59,0,1.32,0,1.91v63.71h-26.42V77.27c0-12.48-6.9-23.05-32.15-23.05
			c-14.53,0-31.85,2.79-31.85,16.29v67.23h-26.42V32.05h26.42V65.82z"/>
		<path class="st1" d="M911.53,92.53c2.05,18.06,13.36,24.37,36.7,24.37c20.4,0,35.23-5.14,35.23-18.2V98.4h26.72v0.29
			c0,22.31-18.35,39.78-62.68,39.78c-43.3,0-62.83-18.79-62.83-51.38v-1.17c0-34.79,19.67-54.61,62.97-54.61
			c42.57,0,62.53,18.06,62.53,47.27v13.94H911.53z M912.56,71.54h70.75c-2.35-13.65-13.8-19.23-36.26-19.23
			C927.24,52.31,916.08,57.6,912.56,71.54z"/>
		<path class="st1" d="M1085.77,137.74V53.19h-25.39V32.05h25.39V20.02h26.42v12.04h36.4v21.14h-36.4v84.55H1085.77z"/>
		<path class="st1" d="M1273.51,84.46v0.88c0,33.03-18.5,53.14-62.53,53.14c-44.04,0-62.68-20.11-62.68-53.14v-0.88
			c0-33.03,18.64-53.14,62.68-53.14C1255.02,31.32,1273.51,51.43,1273.51,84.46z M1247.09,85.19v-0.59
			c0-22.02-11.16-29.65-36.11-29.65s-36.11,7.63-36.11,29.65v0.59c0,22.02,11.16,29.65,36.11,29.65S1247.09,107.21,1247.09,85.19z"
			/>
		<path class="st1" d="M126.21,241.8c0-17.32,10.57-34.5,42.28-34.5c27.16,0,44.33,11.89,47.56,34.5
			c1.47-17.32,12.77-34.5,43.01-34.5c30.39,0,48.15,14.83,48.15,42.72v63.71h-26.42v-60.48c0-12.48-6.9-23.05-32.73-23.05
			c-13.21,0-29.8,3.08-31.41,17.91c0,0.59,0,1.32,0,1.91v63.71h-26.42v-60.48c0-12.48-6.9-23.05-32.15-23.05
			c-14.53,0-31.85,2.79-31.85,16.29v67.23H99.79V208.03h26.42V241.8z"/>
		<path class="st1" d="M321.3,321.06v-22.31h15.71c16.15,0,23.78-3.52,30.83-12.92h-14.39l-49.17-77.8h30.09l40.66,65.03
			l34.05-65.03h28.62l-42.42,77.8C380.01,314.46,368.27,321.06,321.3,321.06z"/>
		<path class="st1" d="M173.99,451.98v37.72h-26.42V370.07h68.26c38.02,0,52.84,16.44,52.84,40.37v1.76
			c0,23.49-14.97,39.78-53.58,39.78H173.99z M173.99,393.56v36.4h39.63c18.94,0,27.6-4.84,27.6-18.06v-0.44
			c0-13.06-8.66-17.91-27.6-17.91H173.99z"/>
		<path class="st1" d="M400.63,436.42v0.88c0,33.03-18.5,53.14-62.53,53.14c-44.04,0-62.68-20.11-62.68-53.14v-0.88
			c0-33.03,18.64-53.14,62.68-53.14C382.14,383.28,400.63,403.39,400.63,436.42z M374.21,437.15v-0.59
			c0-22.02-11.16-29.65-36.11-29.65s-36.11,7.63-36.11,29.65v0.59c0,22.02,11.16,29.65,36.11,29.65S374.21,459.17,374.21,437.15z"/>
		<path class="st1" d="M478.43,383.28c3.67,0,5.43,0.15,7.78,0.73v26.13c-17.91-4.11-48.44-3.23-48.44,13.5v66.06h-26.42V384.01
			h26.42v34.79C437.77,400.6,448.34,383.28,478.43,383.28z"/>
		<path class="st1" d="M521,489.7v-84.55H495.6v-21.14H521v-12.04h26.42v12.04h36.4v21.14h-36.4v84.55H521z"/>
		<path class="st1" d="M708.74,436.42v0.88c0,33.03-18.5,53.14-62.53,53.14c-44.04,0-62.68-20.11-62.68-53.14v-0.88
			c0-33.03,18.64-53.14,62.68-53.14C690.25,383.28,708.74,403.39,708.74,436.42z M682.32,437.15v-0.59
			c0-22.02-11.16-29.65-36.11-29.65s-36.11,7.63-36.11,29.65v0.59c0,22.02,11.16,29.65,36.11,29.65S682.32,459.17,682.32,437.15z"/>
		<path class="st1" d="M712.56,395.02h26.57v-2.35c0-14.97,8.37-22.61,22.61-22.61h40.81v17.32h-32.15c-3.38,0-4.84,1.76-4.84,4.84
			v2.79h36.55v19.23h-36.55v75.45h-26.42v-75.45h-26.57V395.02z"/>
		<path class="st1" d="M931.86,436.42v0.88c0,33.03-18.5,53.14-62.53,53.14c-44.04,0-62.68-20.11-62.68-53.14v-0.88
			c0-33.03,18.64-53.14,62.68-53.14C913.37,383.28,931.86,403.39,931.86,436.42z M905.44,437.15v-0.59
			c0-22.02-11.16-29.65-36.11-29.65s-36.11,7.63-36.11,29.65v0.59c0,22.02,11.16,29.65,36.11,29.65S905.44,459.17,905.44,437.15z"/>
		<path class="st1" d="M942.58,370.07H969V489.7h-26.42V370.07z"/>
		<path class="st1" d="M980.01,368.9h26.42v11.45h-26.42V368.9z M980.01,384.01h26.42V489.7h-26.42V384.01z"/>
		<path class="st1" d="M1142.21,436.42v0.88c0,33.03-18.5,53.14-62.53,53.14S1017,470.33,1017,437.3v-0.88
			c0-33.03,18.64-53.14,62.68-53.14S1142.21,403.39,1142.21,436.42z M1115.79,437.15v-0.59c0-22.02-11.16-29.65-36.11-29.65
			s-36.11,7.63-36.11,29.65v0.59c0,22.02,11.16,29.65,36.11,29.65S1115.79,459.17,1115.79,437.15z"/>
	</g>
	<g>
		<g>
			<path class="st0" d="M1230.39,337.78l-785.86,39.35c-11.52,0.58-21.33-8.3-21.91-19.82l-8.03-160.3
				c-0.58-11.52,8.3-21.33,19.82-21.91l785.86-39.35c11.52-0.58,21.33,8.3,21.91,19.82l8.03,160.3
				C1250.79,327.39,1241.91,337.2,1230.39,337.78z"/>
		</g>
		<g>
			<path class="st2" d="M478.34,210.82l64.51-3.23c54.1-2.71,74.45,19.2,76.23,54.83l0.15,2.93c1.77,35.33-16.3,59.02-70.4,61.73
				l-64.51,3.23L478.34,210.82z M505.93,233.39l3.6,71.84l36.65-1.83c30.93-1.55,47.95-10.92,46.63-37.46l-0.07-1.32
				c-1.34-26.68-19.22-34.61-50.16-33.06L505.93,233.39z"/>
			<path class="st2" d="M656.82,276.4c2.96,17.93,14.56,23.67,37.87,22.5c20.38-1.02,34.93-6.89,34.28-19.94l-0.01-0.29l26.68-1.34
				l0.01,0.29c1.12,22.28-16.34,40.65-60.61,42.86c-43.25,2.17-63.69-15.62-65.32-48.17l-0.06-1.17
				c-1.74-34.75,16.91-55.52,60.16-57.69c42.52-2.13,63.36,14.91,64.82,44.08l0.7,13.93L656.82,276.4z M656.79,255.38l70.66-3.54
				c-3.03-13.52-14.74-18.52-37.17-17.39C670.49,235.44,659.61,241.28,656.79,255.38z"/>
			<path class="st2" d="M826.68,313.9c-41.05,2.06-60.56-8.87-61.77-33.21l-0.03-0.59l25.51-1.28l0.09,1.76
				c0.54,10.7,8.15,16.05,35.57,14.68c26.83-1.34,33.81-5.66,33.4-13.87l-0.03-0.59c-0.42-8.36-7.35-11.69-33.15-10.39
				c-45.89,2.3-62.05-3.51-63.22-26.82l-0.03-0.59c-1.08-21.55,17.84-34.11,58.3-36.14c39.58-1.98,59.93,10.96,61.06,33.54
				l0.06,1.17l-25.36,1.27l-0.1-2.05c-0.55-11-10.09-16.54-35.3-15.28c-26.68,1.34-34.03,7.29-33.67,14.33l0.02,0.44
				c0.35,7.04,5.51,10.31,35.13,8.82c46.62-2.33,60.53,5.35,61.66,27.92l0.06,1.17C885.81,297.27,870.08,311.72,826.68,313.9z"/>
			<path class="st2" d="M889.95,189.04l26.39-1.32l0.57,11.43l-26.39,1.32L889.95,189.04z M890.7,204.14l26.39-1.32l5.29,105.56
				l-26.39,1.32L890.7,204.14z"/>
			<path class="st2" d="M1053.14,196l4.02,80.19c1.06,21.11-13.87,34.2-59.9,36.51c-43.25,2.17-59.89-7.29-60.74-24.3l-0.12-2.35
				l25.51-1.28l0.02,0.44c0.54,10.7,10.78,12.69,34.67,11.49c24.63-1.23,34.85-5.57,34.17-19.05l-1.28-25.51
				c0.59,11.73-9.6,28.41-42.44,30.05c-38.26,1.92-55.82-11.17-57.11-36.97l-0.15-3.08c-1.31-26.24,14.83-41.45,53.09-43.37
				c32.84-1.64,44.65,14.08,45.23,25.66l-1.36-27.12L1053.14,196z M991.75,217.3c-24.63,1.23-36.36,7.7-35.52,24.41l0.07,1.47
				c0.81,16.13,12.38,21.13,37.74,19.86c18.77-0.94,35.79-4.44,35.24-15.43l-0.92-18.47C1027.8,218.29,1010.51,216.36,991.75,217.3z
				"/>
			<path class="st2" d="M1092.21,227.7c-0.87-17.3,8.84-34.83,40.5-36.42c30.35-1.52,48.81,12.11,50.22,40.11l3.19,63.77
				l-26.39,1.32l-3.03-60.55c-0.69-13.78-9.79-22.44-32.67-21.29c-15.69,0.79-32.24,4.85-31.58,17.9l3.36,67.15l-26.39,1.32
				l-5.29-105.56l26.39-1.32L1092.21,227.7z"/>
		</g>
	</g>
</g>
</svg>
