<?xml version="1.0" encoding="utf-8"?>
<!-- Generator: Adobe Illustrator 26.5.0, SVG Export Plug-In . SVG Version: 6.00 Build 0)  -->
<svg version="1.1" id="Layer_1" xmlns="http://www.w3.org/2000/svg" xmlns:xlink="http://www.w3.org/1999/xlink" x="0px" y="0px"
	 viewBox="0 0 1396.32 544.99" style="enable-background:new 0 0 1396.32 544.99;" xml:space="preserve">
<style type="text/css">
	.st0{fill:#ECE9E4;}
	.st1{fill:none;stroke:#ECE9E4;stroke-miterlimit:10;}
	.st2{fill:#ED1C24;}
</style>
<g>
	<g>
		<path class="st0" d="M137.68,24.48h24.43l27.3,83.09l27.7-83.09h31.75l27.7,83.74l28.48-83.74h24.04L292.1,130.96h-30.44
			l-29.26-87.92l-29.53,87.92h-29.53L137.68,24.48z"/>
		<path class="st0" d="M346.58,90.72c1.83,16.07,11.89,21.69,32.66,21.69c18.16,0,31.35-4.57,31.35-16.2v-0.26h23.78v0.26
			c0,19.86-16.33,35.41-55.79,35.41c-38.54,0-55.92-16.72-55.92-45.73v-1.04c0-30.96,17.51-48.6,56.05-48.6
			c37.89,0,55.65,16.07,55.65,42.07v12.41H346.58z M347.5,72.04h62.97c-2.09-12.15-12.28-17.12-32.27-17.12
			C360.56,54.92,350.63,59.63,347.5,72.04z"/>
		<path class="st0" d="M443.92,24.48h23.52v106.48h-23.52V24.48z"/>
		<path class="st0" d="M588.54,87.85v2.74c0,25.34-17.25,41.02-55.79,41.02c-39.19,0-55.92-17.9-55.92-47.29v-0.78
			c0-29.39,16.72-47.29,55.92-47.29c38.54,0,55.79,15.68,55.79,41.02v2.74h-23.52v-1.04c0-15.94-10.19-21.69-32.53-21.69
			c-22.08,0-32.01,6.66-32.01,26.39v0.52c0,19.73,9.93,26.39,32.01,26.39c22.34,0,32.53-5.75,32.53-21.69v-1.04H588.54z"/>
		<path class="st0" d="M709,83.54v0.78c0,29.4-16.46,47.29-55.65,47.29c-39.19,0-55.79-17.9-55.79-47.29v-0.78
			c0-29.39,16.59-47.29,55.79-47.29C692.54,36.24,709,54.14,709,83.54z M685.49,84.19v-0.52c0-19.6-9.93-26.39-32.14-26.39
			c-22.21,0-32.14,6.79-32.14,26.39v0.52c0,19.6,9.93,26.39,32.14,26.39C675.56,110.58,685.49,103.79,685.49,84.19z"/>
		<path class="st0" d="M742.06,66.94c0-15.42,9.41-30.7,37.63-30.7c24.17,0,39.46,10.58,42.33,30.7
			c1.31-15.42,11.37-30.7,38.28-30.7c27.04,0,42.85,13.19,42.85,38.02v56.7h-23.52V77.13c0-11.1-6.14-20.51-29.13-20.51
			c-11.76,0-26.52,2.74-27.96,15.94c0,0.52,0,1.18,0,1.7v56.7h-23.52V77.13c0-11.1-6.14-20.51-28.61-20.51
			c-12.93,0-28.35,2.48-28.35,14.5v59.84h-23.52V36.9h23.52V66.94z"/>
		<path class="st0" d="M936.47,90.72c1.83,16.07,11.89,21.69,32.66,21.69c18.16,0,31.36-4.57,31.36-16.2v-0.26h23.78v0.26
			c0,19.86-16.33,35.41-55.79,35.41c-38.54,0-55.92-16.72-55.92-45.73v-1.04c0-30.96,17.51-48.6,56.05-48.6
			c37.89,0,55.65,16.07,55.65,42.07v12.41H936.47z M937.38,72.04h62.97c-2.09-12.15-12.28-17.12-32.27-17.12
			C950.45,54.92,940.52,59.63,937.38,72.04z"/>
		<path class="st0" d="M1091.54,130.96V55.71h-22.6V36.9h22.6V26.18h23.52V36.9h32.4v18.81h-32.4v75.25H1091.54z"/>
		<path class="st0" d="M1258.64,83.54v0.78c0,29.4-16.46,47.29-55.65,47.29s-55.79-17.9-55.79-47.29v-0.78
			c0-29.39,16.59-47.29,55.79-47.29S1258.64,54.14,1258.64,83.54z M1235.13,84.19v-0.52c0-19.6-9.93-26.39-32.14-26.39
			c-22.21,0-32.14,6.79-32.14,26.39v0.52c0,19.6,9.93,26.39,32.14,26.39C1225.2,110.58,1235.13,103.79,1235.13,84.19z"/>
		<path class="st0" d="M237.49,223.57c0-15.42,9.41-30.7,37.63-30.7c24.17,0,39.46,10.58,42.33,30.7
			c1.31-15.42,11.37-30.7,38.28-30.7c27.04,0,42.85,13.19,42.85,38.02v56.7h-23.52v-53.83c0-11.1-6.14-20.51-29.13-20.51
			c-11.76,0-26.52,2.74-27.96,15.94c0,0.52,0,1.18,0,1.7v56.7h-23.52v-53.83c0-11.1-6.14-20.51-28.61-20.51
			c-12.93,0-28.35,2.48-28.35,14.5v59.84h-23.52v-94.06h23.52V223.57z"/>
		<path class="st0" d="M411.13,294.12v-19.86h13.98c14.37,0,21.16-3.13,27.44-11.5h-12.8l-43.77-69.24h26.78l36.19,57.88
			l30.31-57.88h25.48l-37.76,69.24C463.39,288.24,452.94,294.12,411.13,294.12z"/>
		<path class="st1" d="M558.63,181.11h57.48c48.21,0,65.32,20.38,65.32,52.13v2.61c0,31.49-17.11,51.74-65.32,51.74h-57.48V181.11z
			 M582.15,202.41v64.02h32.66c27.57,0,43.11-7.58,43.11-31.22v-1.18c0-23.78-15.55-31.62-43.11-31.62H582.15z"/>
		<path class="st1" d="M714.36,247.35c1.83,16.07,11.89,21.69,32.66,21.69c18.16,0,31.35-4.57,31.35-16.2v-0.26h23.78v0.26
			c0,19.86-16.33,35.41-55.79,35.41c-38.54,0-55.92-16.72-55.92-45.73v-1.04c0-30.96,17.51-48.6,56.05-48.6
			c37.89,0,55.65,16.07,55.65,42.07v12.41H714.36z M715.28,228.67h62.97c-2.09-12.15-12.28-17.12-32.27-17.12
			C728.34,211.56,718.41,216.26,715.28,228.67z"/>
		<path class="st1" d="M863.69,288.24c-36.58,0-53.43-10.58-53.43-32.27v-0.52h22.73v1.57c0,9.54,6.53,14.63,30.96,14.63
			c23.91,0,30.31-3.53,30.31-10.84v-0.52c0-7.45-6.01-10.71-29-10.71c-40.89,0-55-5.88-55-26.65v-0.52
			c0-19.21,17.38-29.53,53.43-29.53c35.27,0,52.78,12.41,52.78,32.53v1.04h-22.6v-1.83c0-9.8-8.23-15.15-30.7-15.15
			c-23.78,0-30.57,4.96-30.57,11.24v0.39c0,6.27,4.44,9.41,30.83,9.41c41.54,0,53.56,7.45,53.56,27.57v1.05
			C917,276.09,902.36,288.24,863.69,288.24z"/>
		<path class="st1" d="M925.49,180.07h23.52v10.19h-23.52V180.07z M925.49,193.53h23.52v94.06h-23.52V193.53z"/>
		<path class="st1" d="M1070.25,193.53v71.46c0,18.81-13.85,29.79-54.87,29.79c-38.54,0-52.91-9.15-52.91-24.3v-2.09h22.73v0.39
			c0,9.54,9.01,11.76,30.31,11.76c21.95,0,31.22-3.4,31.22-15.42v-22.73c0,10.45-9.8,24.82-39.06,24.82
			c-34.1,0-49.12-12.41-49.12-35.41v-2.74c0-23.39,15.02-36.19,49.12-36.19c29.26,0,39.06,14.5,39.06,24.82v-24.17H1070.25z
			 M1014.72,209.73c-21.95,0-32.66,5.23-32.66,20.12v1.31c0,14.37,10.06,19.34,32.66,19.34c16.72,0,32.01-2.35,32.01-12.15v-16.46
			C1046.73,212.21,1031.45,209.73,1014.72,209.73z"/>
		<path class="st1" d="M1103.56,223.44c0-15.42,9.41-30.57,37.63-30.57c27.04,0,42.85,12.93,42.85,37.89v56.83h-23.52v-53.96
			c0-12.28-7.71-20.38-28.09-20.38c-13.98,0-28.87,2.88-28.87,14.5v59.84h-23.52v-94.06h23.52V223.44z"/>
		<path class="st0" d="M280.02,410.65v33.58H256.5V337.75h60.75c33.84,0,47.03,14.63,47.03,35.93v1.57c0,20.9-13.33,35.4-47.69,35.4
			H280.02z M280.02,358.65v32.4h35.27c16.85,0,24.56-4.31,24.56-16.07v-0.39c0-11.63-7.71-15.94-24.56-15.94H280.02z"/>
		<path class="st0" d="M481.74,396.8v0.78c0,29.4-16.46,47.29-55.65,47.29c-39.19,0-55.79-17.9-55.79-47.29v-0.78
			c0-29.39,16.59-47.29,55.79-47.29C465.28,349.5,481.74,367.4,481.74,396.8z M458.22,397.45v-0.52c0-19.6-9.93-26.39-32.14-26.39
			c-22.21,0-32.14,6.79-32.14,26.39v0.52c0,19.6,9.93,26.39,32.14,26.39C448.29,423.84,458.22,417.05,458.22,397.45z"/>
		<path class="st0" d="M550.98,349.5c3.27,0,4.83,0.13,6.92,0.65v23.25c-15.94-3.66-43.11-2.88-43.11,12.02v58.79h-23.52v-94.06
			h23.52v30.96C514.8,364.92,524.2,349.5,550.98,349.5z"/>
		<path class="st0" d="M588.87,444.22v-75.25h-22.6v-18.81h22.6v-10.71h23.52v10.71h32.4v18.81h-32.4v75.25H588.87z"/>
		<path class="st0" d="M755.97,396.8v0.78c0,29.4-16.46,47.29-55.65,47.29c-39.19,0-55.79-17.9-55.79-47.29v-0.78
			c0-29.39,16.59-47.29,55.79-47.29C739.51,349.5,755.97,367.4,755.97,396.8z M732.45,397.45v-0.52c0-19.6-9.93-26.39-32.14-26.39
			c-22.21,0-32.14,6.79-32.14,26.39v0.52c0,19.6,9.93,26.39,32.14,26.39C722.53,423.84,732.45,417.05,732.45,397.45z"/>
		<path class="st0" d="M759.37,359.96h23.65v-2.09c0-13.33,7.45-20.12,20.12-20.12h36.32v15.42h-28.61c-3,0-4.31,1.57-4.31,4.31
			v2.48h32.53v17.11h-32.53v67.15h-23.52v-67.15h-23.65V359.96z"/>
		<path class="st0" d="M954.56,396.8v0.78c0,29.4-16.46,47.29-55.66,47.29s-55.79-17.9-55.79-47.29v-0.78
			c0-29.39,16.59-47.29,55.79-47.29S954.56,367.4,954.56,396.8z M931.04,397.45v-0.52c0-19.6-9.93-26.39-32.14-26.39
			c-22.21,0-32.14,6.79-32.14,26.39v0.52c0,19.6,9.93,26.39,32.14,26.39C921.11,423.84,931.04,417.05,931.04,397.45z"/>
		<path class="st0" d="M964.1,337.75h23.52v106.48H964.1V337.75z"/>
		<path class="st0" d="M997.41,336.7h23.52v10.19h-23.52V336.7z M997.41,350.16h23.52v94.06h-23.52V350.16z"/>
		<path class="st0" d="M1141.78,396.8v0.78c0,29.4-16.46,47.29-55.65,47.29c-39.19,0-55.79-17.9-55.79-47.29v-0.78
			c0-29.39,16.59-47.29,55.79-47.29C1125.32,349.5,1141.78,367.4,1141.78,396.8z M1118.26,397.45v-0.52
			c0-19.6-9.93-26.39-32.14-26.39c-22.21,0-32.14,6.79-32.14,26.39v0.52c0,19.6,9.93,26.39,32.14,26.39
			C1108.33,423.84,1118.26,417.05,1118.26,397.45z"/>
	</g>
	<g>
		<g>
			<g>
				<path class="st2" d="M289.74,488.12c106.53,1.32,213.06,1.73,319.6,1.22c105.99-0.51,211.97-1.92,317.94-4.23
					c59.78-1.31,119.54-2.9,179.3-4.79c1.93-0.06,1.93-3.06,0-3c-106.48,3.35-212.99,5.8-319.51,7.32
					c-105.98,1.52-211.97,2.13-317.96,1.84c-59.79-0.17-119.58-0.62-179.36-1.36C287.81,485.09,287.81,488.09,289.74,488.12
					L289.74,488.12z"/>
			</g>
		</g>
		<g>
			<g>
				<path class="st2" d="M394.15,515.54c80.07-6.68,160.21-12.43,240.41-17.25c79.79-4.79,159.64-8.66,239.53-11.61
					c44.83-1.65,89.68-3.01,134.53-4.08c1.93-0.05,1.93-3.05,0-3c-80.32,1.92-160.62,4.77-240.88,8.55
					c-79.85,3.77-159.65,8.45-239.39,14.07c-44.75,3.15-89.48,6.59-134.19,10.32C392.24,512.7,392.23,515.71,394.15,515.54
					L394.15,515.54z"/>
			</g>
		</g>
	</g>
	<g>
		<g>
			<path class="st2" d="M1277.52,160.33v10.74h-3.15v-14.25h4.88l5.65,11l5.54-11h4.91v14.25h-3.15V160.2l-5.6,10.86h-3.6
				L1277.52,160.33z"/>
			<path class="st2" d="M1296.65,156.67h3.15v1.36h-3.15V156.67z M1296.65,158.47h3.15v12.59h-3.15V158.47z"/>
			<path class="st2" d="M1304.26,162.48c0-2.06,1.26-4.09,5.04-4.09c3.62,0,5.74,1.73,5.74,5.07v7.61h-3.15v-7.22
				c0-1.64-1.03-2.73-3.76-2.73c-1.87,0-3.86,0.38-3.86,1.94v8.01h-3.15v-12.59h3.15V162.48z"/>
			<path class="st2" d="M1316.34,156.67h3.15v1.36h-3.15V156.67z M1316.34,158.47h3.15v12.59h-3.15V158.47z"/>
			<path class="st2" d="M1323.95,162.49c0-2.06,1.26-4.11,5.04-4.11c3.23,0,5.28,1.42,5.67,4.11c0.17-2.06,1.52-4.11,5.12-4.11
				c3.62,0,5.74,1.77,5.74,5.09v7.59h-3.15v-7.2c0-1.49-0.82-2.75-3.9-2.75c-1.57,0-3.55,0.37-3.74,2.13c0,0.07,0,0.16,0,0.23v7.59
				h-3.15v-7.2c0-1.49-0.82-2.75-3.83-2.75c-1.73,0-3.79,0.33-3.79,1.94v8.01h-3.15v-12.59h3.15V162.49z"/>
			<path class="st2" d="M1350.34,163.14h-3.18v-0.07c0-2.99,2.47-4.69,6.63-4.69c4.65,0,6.71,1.4,6.71,4.77v7.9h-3.13v-3.11
				c0,1.29-1.35,3.2-5.23,3.2c-3.58,0-5.56-0.84-5.56-3.31v-0.16c0-3.71,4.79-3.62,10.79-4.48v-0.02c0-1.47-0.77-2.17-3.71-2.17
				c-2.43,0-3.32,0.7-3.32,2.06V163.14z M1352.49,169.09c2.48,0,4.88-0.26,4.88-1.7v-1.8c-5.82,0.65-7.64,0.96-7.64,2.08v0.07
				C1349.72,168.58,1350.39,169.09,1352.49,169.09z"/>
			<path class="st2" d="M1361.83,156.81h3.15v14.25h-3.15V156.81z"/>
			<path class="st2" d="M1277.82,177.78h7.69c6.45,0,8.74,2.73,8.74,6.98v0.35c0,4.21-2.29,6.92-8.74,6.92h-7.69V177.78z
				 M1280.96,180.63v8.57h4.37c3.69,0,5.77-1.01,5.77-4.18v-0.16c0-3.18-2.08-4.23-5.77-4.23H1280.96z"/>
			<path class="st2" d="M1298.66,186.64c0.25,2.15,1.59,2.9,4.37,2.9c2.43,0,4.2-0.61,4.2-2.17v-0.04h3.18v0.04
				c0,2.66-2.19,4.74-7.47,4.74c-5.16,0-7.48-2.24-7.48-6.12v-0.14c0-4.14,2.34-6.5,7.5-6.5c5.07,0,7.45,2.15,7.45,5.63v1.66
				H1298.66z M1298.78,184.14h8.43c-0.28-1.63-1.64-2.29-4.32-2.29C1300.53,181.85,1299.2,182.48,1298.78,184.14z"/>
			<path class="st2" d="M1318.65,192.12c-4.9,0-7.15-1.42-7.15-4.32v-0.07h3.04v0.21c0,1.28,0.87,1.96,4.14,1.96
				c3.2,0,4.06-0.47,4.06-1.45v-0.07c0-1-0.8-1.43-3.88-1.43c-5.47,0-7.36-0.79-7.36-3.57v-0.07c0-2.57,2.33-3.95,7.15-3.95
				c4.72,0,7.06,1.66,7.06,4.35v0.14h-3.03v-0.25c0-1.31-1.1-2.03-4.11-2.03c-3.18,0-4.09,0.67-4.09,1.5v0.05
				c0,0.84,0.59,1.26,4.13,1.26c5.56,0,7.17,1,7.17,3.69v0.14C1325.78,190.49,1323.82,192.12,1318.65,192.12z"/>
			<path class="st2" d="M1326.92,177.64h3.15V179h-3.15V177.64z M1326.92,179.44h3.15v12.59h-3.15V179.44z"/>
			<path class="st2" d="M1346.3,179.44V189c0,2.52-1.85,3.99-7.34,3.99c-5.16,0-7.08-1.22-7.08-3.25v-0.28h3.04v0.05
				c0,1.28,1.21,1.57,4.06,1.57c2.94,0,4.18-0.46,4.18-2.06v-3.04c0,1.4-1.31,3.32-5.23,3.32c-4.56,0-6.58-1.66-6.58-4.74v-0.37
				c0-3.13,2.01-4.84,6.58-4.84c3.92,0,5.23,1.94,5.23,3.32v-3.24H1346.3z M1338.86,181.61c-2.94,0-4.37,0.7-4.37,2.69v0.18
				c0,1.92,1.35,2.59,4.37,2.59c2.24,0,4.28-0.32,4.28-1.63v-2.2C1343.15,181.94,1341.1,181.61,1338.86,181.61z"/>
			<path class="st2" d="M1350.76,183.44c0-2.06,1.26-4.09,5.04-4.09c3.62,0,5.74,1.73,5.74,5.07v7.61h-3.15v-7.22
				c0-1.64-1.03-2.73-3.76-2.73c-1.87,0-3.86,0.38-3.86,1.94v8.01h-3.15v-12.59h3.15V183.44z"/>
			<path class="st2" d="M1271.48,209.67h-8.04l-1.49,3.32h-3.2l6.47-14.25h4.49l6.5,14.25h-3.25L1271.48,209.67z M1270.29,207.03
				l-2.83-6.33l-2.83,6.33H1270.29z"/>
			<path class="st2" d="M1280.41,203.76c0-1.52,1.33-3.44,5.26-3.44c4.65,0,6.54,2.41,6.54,6.03v0.07c0,3.62-1.89,6.03-6.54,6.03
				c-3.93,0-5.26-1.92-5.26-3.45v4.86h-3.13V200.4h3.13V203.76z M1280.41,208.39c0,1.17,2.03,1.47,4.27,1.47
				c2.96,0,4.39-0.86,4.39-3.45v-0.07c0-2.59-1.43-3.45-4.39-3.45c-2.24,0-4.27,0.3-4.27,1.47V208.39z"/>
			<path class="st2" d="M1296.64,203.76c0-1.52,1.33-3.44,5.26-3.44c4.65,0,6.54,2.41,6.54,6.03v0.07c0,3.62-1.89,6.03-6.54,6.03
				c-3.93,0-5.26-1.92-5.26-3.45v4.86h-3.13V200.4h3.13V203.76z M1296.64,208.39c0,1.17,2.03,1.47,4.27,1.47
				c2.96,0,4.39-0.86,4.39-3.45v-0.07c0-2.59-1.43-3.45-4.39-3.45c-2.24,0-4.27,0.3-4.27,1.47V208.39z"/>
			<path class="st2" d="M1317.73,200.31c0.44,0,0.65,0.02,0.93,0.09v3.11c-2.13-0.49-5.77-0.38-5.77,1.61v7.87h-3.15V200.4h3.15
				v4.14C1312.89,202.38,1314.15,200.31,1317.73,200.31z"/>
			<path class="st2" d="M1333.98,206.64v0.1c0,3.93-2.2,6.33-7.45,6.33s-7.47-2.4-7.47-6.33v-0.1c0-3.93,2.22-6.33,7.47-6.33
				S1333.98,202.71,1333.98,206.64z M1330.83,206.73v-0.07c0-2.62-1.33-3.53-4.3-3.53s-4.3,0.91-4.3,3.53v0.07
				c0,2.62,1.33,3.53,4.3,3.53S1330.83,209.35,1330.83,206.73z"/>
			<path class="st2" d="M1338.77,205.07h-3.18V205c0-2.99,2.47-4.69,6.63-4.69c4.65,0,6.71,1.4,6.71,4.77v7.9h-3.13v-3.11
				c0,1.29-1.35,3.2-5.23,3.2c-3.58,0-5.56-0.84-5.56-3.31v-0.16c0-3.71,4.79-3.62,10.79-4.48v-0.02c0-1.47-0.77-2.17-3.71-2.17
				c-2.43,0-3.32,0.7-3.32,2.06V205.07z M1340.92,211.02c2.48,0,4.88-0.26,4.88-1.7v-1.8c-5.82,0.65-7.64,0.96-7.64,2.08v0.07
				C1338.16,210.51,1338.82,211.02,1340.92,211.02z"/>
			<path class="st2" d="M1365.16,207.22v0.37c0,3.39-2.31,5.49-7.47,5.49c-5.25,0-7.48-2.4-7.48-6.33v-0.1
				c0-3.93,2.24-6.33,7.48-6.33c5.16,0,7.47,2.1,7.47,5.49v0.37h-3.15v-0.14c0-2.13-1.36-2.9-4.35-2.9c-2.96,0-4.28,0.89-4.28,3.53
				v0.07c0,2.64,1.33,3.53,4.28,3.53c2.99,0,4.35-0.77,4.35-2.9v-0.14H1365.16z"/>
			<path class="st2" d="M1377.19,212.99v-7.22c0-1.64-1.03-2.73-3.76-2.73c-1.87,0-3.86,0.38-3.86,1.94v8.01h-3.15v-14.25h3.15v5.67
				c0-2.06,1.26-4.09,5.04-4.09c3.6,0,5.74,1.73,5.74,5.07v7.61H1377.19z"/>
		</g>
		<g>
			<path class="st2" d="M50,369.43h8.71c3.39,0,4.77,1.43,4.77,3.29v0.16c0,1.5-0.93,2.71-3.17,3.01c3.13,0.25,4.49,1.56,4.49,3.51
				v0.16c0,2.89-2.05,4.13-6.68,4.13H50V369.43z M53.15,371.93v2.99h4.83c1.64,0,2.38-0.38,2.38-1.5v-0.05
				c0-1.07-0.82-1.43-2.66-1.43H53.15z M53.15,377.47v3.66h5.21c2.36,0,3.25-0.47,3.25-1.8v-0.05c0-1.29-1.05-1.8-3.25-1.8H53.15z"
				/>
			<path class="st2" d="M69.53,375.76h-3.18v-0.07c0-2.99,2.47-4.69,6.63-4.69c4.65,0,6.71,1.4,6.71,4.77v7.9h-3.13v-3.11
				c0,1.29-1.35,3.2-5.23,3.2c-3.58,0-5.56-0.84-5.56-3.31v-0.16c0-3.71,4.79-3.62,10.79-4.48v-0.02c0-1.47-0.77-2.17-3.71-2.17
				c-2.43,0-3.32,0.7-3.32,2.06V375.76z M71.69,381.71c2.48,0,4.88-0.26,4.88-1.7v-1.8c-5.82,0.65-7.64,0.96-7.64,2.08v0.07
				C68.92,381.2,69.59,381.71,71.69,381.71z"/>
			<path class="st2" d="M87.98,383.77c-4.9,0-7.15-1.42-7.15-4.32v-0.07h3.04v0.21c0,1.28,0.87,1.96,4.14,1.96
				c3.2,0,4.06-0.47,4.06-1.45v-0.07c0-1-0.8-1.43-3.88-1.43c-5.47,0-7.36-0.79-7.36-3.57v-0.07c0-2.57,2.33-3.95,7.15-3.95
				c4.72,0,7.06,1.66,7.06,4.35v0.14h-3.02v-0.25c0-1.31-1.1-2.03-4.11-2.03c-3.18,0-4.09,0.67-4.09,1.5v0.05
				c0,0.84,0.59,1.26,4.13,1.26c5.56,0,7.17,1,7.17,3.69v0.14C95.12,382.14,93.16,383.77,87.98,383.77z"/>
			<path class="st2" d="M96.26,369.29h3.15v1.36h-3.15V369.29z M96.26,371.09h3.15v12.59h-3.15V371.09z"/>
			<path class="st2" d="M115.61,377.91v0.37c0,3.39-2.31,5.49-7.47,5.49c-5.25,0-7.48-2.4-7.48-6.33v-0.1
				c0-3.93,2.24-6.33,7.48-6.33c5.16,0,7.47,2.1,7.47,5.49v0.37h-3.15v-0.14c0-2.13-1.36-2.9-4.35-2.9c-2.96,0-4.28,0.89-4.28,3.53
				v0.07c0,2.64,1.33,3.53,4.28,3.53c2.99,0,4.35-0.77,4.35-2.9v-0.14H115.61z"/>
			<path class="st2" d="M120.39,375.76h-3.18v-0.07c0-2.99,2.47-4.69,6.63-4.69c4.65,0,6.71,1.4,6.71,4.77v7.9h-3.13v-3.11
				c0,1.29-1.35,3.2-5.23,3.2c-3.58,0-5.56-0.84-5.56-3.31v-0.16c0-3.71,4.79-3.62,10.79-4.48v-0.02c0-1.47-0.77-2.17-3.71-2.17
				c-2.43,0-3.32,0.7-3.32,2.06V375.76z M122.54,381.71c2.48,0,4.88-0.26,4.88-1.7v-1.8c-5.82,0.65-7.64,0.96-7.64,2.08v0.07
				C119.78,381.2,120.44,381.71,122.54,381.71z"/>
			<path class="st2" d="M131.88,369.43h3.15v14.25h-3.15V369.43z"/>
			<path class="st2" d="M136.34,369.43h3.15v14.25h-3.15V369.43z"/>
			<path class="st2" d="M142.56,384.56v-2.66h1.87c1.92,0,2.83-0.42,3.67-1.54h-1.71l-5.86-9.27h3.58l4.84,7.75l4.06-7.75h3.41
				l-5.05,9.27C149.56,383.77,148.16,384.56,142.56,384.56z"/>
			<path class="st2" d="M15.31,390.39h3.15v11.28h9.51v2.97H15.31V390.39z"/>
			<path class="st2" d="M43.06,398.3v0.1c0,3.93-2.2,6.33-7.45,6.33s-7.47-2.4-7.47-6.33v-0.1c0-3.93,2.22-6.33,7.47-6.33
				S43.06,394.36,43.06,398.3z M39.91,398.39v-0.07c0-2.62-1.33-3.53-4.3-3.53s-4.3,0.91-4.3,3.53v0.07c0,2.62,1.33,3.53,4.3,3.53
				S39.91,401.01,39.91,398.39z"/>
			<path class="st2" d="M59.16,392.06v9.57c0,2.52-1.85,3.99-7.34,3.99c-5.16,0-7.08-1.22-7.08-3.25v-0.28h3.04v0.05
				c0,1.28,1.21,1.57,4.06,1.57c2.94,0,4.18-0.46,4.18-2.06v-3.04c0,1.4-1.31,3.32-5.23,3.32c-4.56,0-6.57-1.66-6.57-4.74v-0.37
				c0-3.13,2.01-4.84,6.57-4.84c3.92,0,5.23,1.94,5.23,3.32v-3.24H59.16z M51.73,394.22c-2.94,0-4.37,0.7-4.37,2.69v0.18
				c0,1.92,1.35,2.59,4.37,2.59c2.24,0,4.28-0.32,4.28-1.63v-2.2C56.02,394.56,53.97,394.22,51.73,394.22z"/>
			<path class="st2" d="M75.34,398.3v0.1c0,3.93-2.2,6.33-7.45,6.33s-7.47-2.4-7.47-6.33v-0.1c0-3.93,2.22-6.33,7.47-6.33
				S75.34,394.36,75.34,398.3z M72.19,398.39v-0.07c0-2.62-1.33-3.53-4.3-3.53s-4.3,0.91-4.3,3.53v0.07c0,2.62,1.33,3.53,4.3,3.53
				S72.19,401.01,72.19,398.39z"/>
			<path class="st2" d="M83.58,404.73c-4.9,0-7.15-1.42-7.15-4.32v-0.07h3.04v0.21c0,1.28,0.87,1.96,4.14,1.96
				c3.2,0,4.06-0.47,4.06-1.45v-0.07c0-1-0.8-1.43-3.88-1.43c-5.47,0-7.36-0.79-7.36-3.57v-0.07c0-2.57,2.33-3.95,7.15-3.95
				c4.72,0,7.06,1.66,7.06,4.35v0.14h-3.02v-0.25c0-1.31-1.1-2.03-4.11-2.03c-3.18,0-4.09,0.67-4.09,1.5v0.05
				c0,0.84,0.59,1.26,4.13,1.26c5.56,0,7.17,1,7.17,3.69v0.14C90.71,403.11,88.75,404.73,83.58,404.73z"/>
			<path class="st2" d="M109.18,393.59v0.19c0,1.87-1.1,2.9-4.32,3.71l3.74,2.85c0.68-0.72,1.05-1.59,1.05-2.73v-0.23h2.9v0.33
				c0,1.63-0.65,3.1-1.77,4.27l3.52,2.66h-4.27l-1.43-1.1c-1.5,0.77-3.34,1.19-5.53,1.19c-4.44,0-6.38-1.35-6.38-3.97v-0.11
				c0-1.94,1.12-3.2,3.13-3.9c-1.21-1.07-1.47-1.73-1.47-2.73v-0.14c0-2.19,1.92-3.58,5.49-3.58
				C107.34,390.31,109.18,391.74,109.18,393.59z M103.62,402.16c1.05,0,1.89-0.14,2.66-0.4l-4.51-3.46
				c-1.43,0.4-1.99,1.03-1.99,1.96v0.07C99.77,401.64,101.05,402.16,103.62,402.16z M102.85,395.99c2.78-0.54,3.53-1.14,3.53-2.08
				v-0.12c0-0.89-0.84-1.35-2.47-1.35c-1.7,0-2.62,0.47-2.62,1.45v0.09C101.29,394.63,101.57,395.03,102.85,395.99z"/>
			<path class="st2" d="M120,390.39h8.71c3.39,0,4.77,1.43,4.77,3.29v0.16c0,1.5-0.93,2.71-3.17,3.01c3.13,0.25,4.49,1.56,4.49,3.51
				v0.16c0,2.89-2.05,4.13-6.68,4.13H120V390.39z M123.15,392.89v2.99h4.83c1.64,0,2.38-0.38,2.38-1.5v-0.05
				c0-1.07-0.82-1.43-2.66-1.43H123.15z M123.15,398.44v3.66h5.21c2.36,0,3.25-0.47,3.25-1.8v-0.05c0-1.29-1.05-1.8-3.25-1.8H123.15
				z"/>
			<path class="st2" d="M144.01,391.97c0.44,0,0.65,0.02,0.93,0.09v3.11c-2.13-0.49-5.77-0.38-5.77,1.61v7.87h-3.15v-12.59h3.15
				v4.14C139.17,394.03,140.43,391.97,144.01,391.97z"/>
			<path class="st2" d="M149.22,396.72h-3.18v-0.07c0-2.99,2.47-4.69,6.63-4.69c4.65,0,6.71,1.4,6.71,4.77v7.9h-3.13v-3.11
				c0,1.29-1.35,3.2-5.23,3.2c-3.58,0-5.56-0.84-5.56-3.31v-0.16c0-3.71,4.79-3.62,10.79-4.48v-0.02c0-1.47-0.77-2.17-3.71-2.17
				c-2.43,0-3.32,0.7-3.32,2.06V396.72z M151.37,402.67c2.48,0,4.88-0.26,4.88-1.7v-1.8c-5.82,0.65-7.64,0.96-7.64,2.08v0.07
				C148.61,402.16,149.28,402.67,151.37,402.67z"/>
			<path class="st2" d="M163.86,396.06c0-2.06,1.26-4.09,5.04-4.09c3.62,0,5.74,1.73,5.74,5.07v7.61h-3.15v-7.22
				c0-1.64-1.03-2.73-3.76-2.73c-1.87,0-3.86,0.38-3.86,1.94v8.01h-3.15v-12.59h3.15V396.06z"/>
			<path class="st2" d="M187.71,390.39h3.13v14.25h-3.13v-3.53c0,1.61-1.33,3.62-5.26,3.62c-4.65,0-6.54-2.54-6.54-6.35v-0.07
				c0-3.81,1.89-6.35,6.54-6.35c3.93,0,5.26,2.01,5.26,3.62V390.39z M183.45,394.61c-2.94,0-4.39,0.93-4.39,3.71v0.07
				c0,2.78,1.45,3.71,4.39,3.71c2.24,0,4.27-0.32,4.27-1.57v-4.34C187.71,394.92,185.68,394.61,183.45,394.61z"/>
			<path class="st2" d="M46.19,411.36h3.15v14.25h-3.15V411.36z"/>
			<path class="st2" d="M62.42,411.36h3.13v14.25h-3.13v-3.53c0,1.61-1.33,3.62-5.26,3.62c-4.65,0-6.54-2.54-6.54-6.35v-0.07
				c0-3.81,1.89-6.35,6.54-6.35c3.93,0,5.26,2.01,5.26,3.62V411.36z M58.15,415.57c-2.94,0-4.39,0.93-4.39,3.71v0.07
				c0,2.78,1.45,3.71,4.39,3.71c2.24,0,4.27-0.32,4.27-1.57v-4.34C62.42,415.89,60.39,415.57,58.15,415.57z"/>
			<path class="st2" d="M70.02,420.23c0.24,2.15,1.59,2.9,4.37,2.9c2.43,0,4.2-0.61,4.2-2.17v-0.04h3.18v0.04
				c0,2.66-2.19,4.74-7.47,4.74c-5.16,0-7.48-2.24-7.48-6.12v-0.14c0-4.14,2.34-6.5,7.5-6.5c5.07,0,7.45,2.15,7.45,5.63v1.66H70.02z
				 M70.15,417.72h8.43c-0.28-1.63-1.64-2.29-4.32-2.29C71.9,415.43,70.57,416.06,70.15,417.72z"/>
			<path class="st2" d="M86.2,417.02c0-2.06,1.26-4.09,5.04-4.09c3.62,0,5.74,1.73,5.74,5.07v7.61h-3.15v-7.22
				c0-1.64-1.03-2.73-3.76-2.73c-1.87,0-3.86,0.38-3.86,1.94v8.01h-3.15v-12.59h3.15V417.02z"/>
			<path class="st2" d="M100.72,425.61v-10.07h-3.03v-2.52h3.03v-1.43h3.15v1.43h4.34v2.52h-4.34v10.07H100.72z"/>
			<path class="st2" d="M109.39,411.22h3.15v1.36h-3.15V411.22z M109.39,413.02h3.15v12.59h-3.15V413.02z"/>
			<path class="st2" d="M116.75,425.61v-10.07h-3.02v-2.52h3.02v-1.43h3.15v1.43h4.34v2.52h-4.34v10.07H116.75z"/>
			<path class="st2" d="M125.42,411.22h3.15v1.36h-3.15V411.22z M125.42,413.02h3.15v12.59h-3.15V413.02z"/>
			<path class="st2" d="M133.03,420.23c0.24,2.15,1.59,2.9,4.37,2.9c2.43,0,4.2-0.61,4.2-2.17v-0.04h3.18v0.04
				c0,2.66-2.19,4.74-7.47,4.74c-5.16,0-7.48-2.24-7.48-6.12v-0.14c0-4.14,2.34-6.5,7.5-6.5c5.07,0,7.45,2.15,7.45,5.63v1.66H133.03
				z M133.15,417.72h8.43c-0.28-1.63-1.64-2.29-4.32-2.29C134.9,415.43,133.57,416.06,133.15,417.72z"/>
			<path class="st2" d="M153.02,425.7c-4.9,0-7.15-1.42-7.15-4.32v-0.07h3.04v0.21c0,1.28,0.87,1.96,4.14,1.96
				c3.2,0,4.06-0.47,4.06-1.45v-0.07c0-1-0.8-1.43-3.88-1.43c-5.47,0-7.36-0.79-7.36-3.57v-0.07c0-2.57,2.33-3.95,7.15-3.95
				c4.72,0,7.06,1.66,7.06,4.35v0.14h-3.02v-0.25c0-1.31-1.1-2.03-4.11-2.03c-3.18,0-4.09,0.67-4.09,1.5v0.05
				c0,0.84,0.59,1.26,4.13,1.26c5.56,0,7.17,1,7.17,3.69v0.14C160.15,424.07,158.19,425.7,153.02,425.7z"/>
		</g>
	</g>
	<g>
		<g>
			<g>
				<path class="st2" d="M104.6,356.02c13.45-5.62,28.33-8.07,42.79-9.1c20.74-1.48,41.73,0.39,61.87,5.53
					c13.29,3.39,26.17,8.22,38.41,14.42c1.72,0.87,3.24-1.72,1.51-2.59c-21.24-10.75-44.35-17.41-68.03-19.83
					c-18.61-1.9-37.62-1.26-55.98,2.42c-7.28,1.46-14.52,3.38-21.38,6.25c-0.75,0.31-1.27,0.99-1.05,1.85
					C102.94,355.68,103.85,356.33,104.6,356.02L104.6,356.02z"/>
			</g>
		</g>
		<g>
			<g>
				<path class="st2" d="M246.77,353.21c2.53,6.29,6.27,11.96,11.14,16.68c0.22-0.84,0.44-1.67,0.66-2.51
					c-7.19,2.82-14.38,5.64-21.57,8.46c-1.78,0.7-1,3.6,0.8,2.89c7.19-2.82,14.38-5.64,21.57-8.46c1.01-0.39,1.54-1.65,0.66-2.51
					c-4.47-4.34-8.04-9.57-10.37-15.36C248.95,350.65,246.05,351.42,246.77,353.21L246.77,353.21z"/>
			</g>
		</g>
	</g>
	<g>
		<g>
			<path class="st2" d="M1261.16,184.33c-14.42,6.54-29.39,11.86-44.72,15.86c-4.31,1.12-8.64,2.14-13,3.05
				c-1.89,0.4-1.09,3.29,0.8,2.89c15.66-3.29,31.01-7.93,45.87-13.86c4.23-1.69,8.42-3.48,12.56-5.36
				C1264.43,186.12,1262.9,183.54,1261.16,184.33L1261.16,184.33z"/>
		</g>
	</g>
	<g>
		<g>
			<path class="st2" d="M1213.1,216.5c-5.57-3.21-11.34-6.05-17.29-8.5c-0.35-0.14-0.69-0.3-1.04-0.42c-0.7-0.26-0.06-0.01-0.1,0.03
				c0.5-0.47,0.87-1.42,1.25-2c0.84-1.28,1.72-2.53,2.64-3.74c1.94-2.57,4.08-4.98,6.36-7.25c1.37-1.37-0.75-3.49-2.12-2.12
				c-2.56,2.56-4.93,5.3-7.09,8.2c-1.04,1.4-2.03,2.84-2.97,4.31c-0.84,1.33-1.8,3.09-0.47,4.48c1.07,1.11,3.08,1.54,4.46,2.13
				c1.65,0.71,3.29,1.46,4.91,2.23c3.38,1.62,6.7,3.37,9.94,5.24C1213.26,220.05,1214.78,217.46,1213.1,216.5L1213.1,216.5z"/>
		</g>
	</g>
</g>
</svg>
