<?xml version="1.0" encoding="utf-8"?>
<!-- Generator: Adobe Illustrator 26.5.0, SVG Export Plug-In . SVG Version: 6.00 Build 0)  -->
<svg version="1.1" id="Layer_1" xmlns="http://www.w3.org/2000/svg" xmlns:xlink="http://www.w3.org/1999/xlink" x="0px" y="0px"
	 viewBox="0 0 400 400" style="enable-background:new 0 0 400 400;" xml:space="preserve">
<style type="text/css">
	.st0{fill:#FFFFFF;}
</style>
<g>
	<g>
		<circle cx="200" cy="200" r="200"/>
	</g>
	<g>
		<path class="st0" d="M155.69,254.3c-11,8.3-25.48,12.55-43.24,12.55c-27.03,0-46.91-9.27-59.65-27.99
			c-7.72-11.58-10.81-23.17-10.81-41.89c0-14.87,5.98-32.24,15.25-43.05c12.36-14.67,30.7-22.39,54.44-22.39
			c25.29,0,44.21,7.72,56.76,22.97c6.76,8.3,9.85,15.83,10.42,26.06h-19.5c-1.35-6.76-3.47-11.39-7.92-16.6
			c-9.07-10.81-20.66-15.83-38.42-15.83c-15.64,0-27.8,4.63-36.68,13.71c-9.07,9.46-14.48,23.55-14.48,37.65
			c0,17.38,5.6,30.5,16.6,39.38c9.07,7.53,21.62,11.78,34.56,11.78c23.94,0,40.35-12.55,46.33-35.52l19.5,0.19
			C177.12,230.17,168.82,244.45,155.69,254.3z"/>
		<path class="st0" d="M240.77,134.99L187.1,263.76h-15.06l53.67-128.77H240.77z"/>
		<path class="st0" d="M260.36,239.24c5.98,8.49,18.15,12.74,36.29,12.74c24.52,0,38.42-8.88,38.42-24.9
			c0-4.05-1.54-7.72-4.44-10.62c-4.44-3.86-17.18-7.53-32.43-9.07c-10.81-0.96-22.59-2.7-30.12-4.44
			c-19.5-4.63-29.15-15.06-29.15-31.47c0-13.9,6.95-25.87,18.53-32.24c10.42-5.21,19.5-7.34,36.68-7.34
			c21.62,0,34.17,4.05,43.24,13.13c5.99,6.76,9.07,13.51,9.85,23.36l-17.76,0.19c-0.96-5.21-1.93-7.72-4.44-10.62
			c-5.98-6.95-17.38-11-32.82-11c-20.85,0-34.56,8.88-34.56,22.78c0,3.86,1.35,7.72,4.25,10.23c3.67,3.67,15.83,7.34,30.7,8.69
			c7.92,0.97,23.17,2.7,31.85,4.83c9.85,2.12,15.25,4.44,20.08,9.27c5.98,5.6,9.07,14.09,9.07,23.17c0,13.9-7.14,26.83-18.73,33.21
			c-8.49,4.83-24.71,7.92-40.16,7.92c-23.94,0-37.84-4.05-47.68-14.87c-6.76-7.53-9.65-15.64-10.23-27.8h18.34
			C256.5,232.29,257.47,235.38,260.36,239.24z"/>
	</g>
</g>
</svg>
