<?xml version="1.0" encoding="utf-8"?>
<!-- Generator: Adobe Illustrator 26.5.0, SVG Export Plug-In . SVG Version: 6.00 Build 0)  -->
<svg version="1.1" id="Layer_1" xmlns="http://www.w3.org/2000/svg" xmlns:xlink="http://www.w3.org/1999/xlink" x="0px" y="0px"
	 viewBox="0 0 559.62 79.6" style="enable-background:new 0 0 559.62 79.6;" xml:space="preserve">
<style type="text/css">
	.st0{fill:#ECE9E4;}
</style>
<g>
	<path class="st0" d="M98.99,42.64v0.29c0,22.48-16.11,36.66-49.4,36.66C15.92,79.6,0,63.87,0,41.1v-2.6C0,15.73,15.92,0,49.59,0
		c33.29,0,49.4,14.18,49.4,36.66v0.39H81.62v-0.39c0-13.7-10.61-20.74-32.42-20.74c-23.45,0-31.84,8.49-31.84,23.25v1.25
		c0,14.76,8.39,23.25,31.84,23.25c21.71,0,32.42-7.14,32.42-20.65v-0.39H98.99z"/>
	<path class="st0" d="M187.86,44.09v0.58c0,21.71-12.16,34.93-41.1,34.93s-41.2-13.22-41.2-34.93v-0.58
		c0-21.71,12.25-34.93,41.2-34.93S187.86,22.38,187.86,44.09z M170.49,44.57v-0.39c0-14.47-7.33-19.49-23.73-19.49
		c-16.4,0-23.73,5.02-23.73,19.49v0.39c0,14.47,7.33,19.49,23.73,19.49C163.16,64.06,170.49,59.05,170.49,44.57z"/>
	<path class="st0" d="M212.27,31.74c0-11.38,6.95-22.58,27.79-22.58c19.97,0,31.65,9.55,31.65,27.98v41.97h-17.37V39.27
		c0-9.07-5.69-15.05-20.74-15.05c-10.32,0-21.32,2.12-21.32,10.71v44.19H194.9V9.65h17.37V31.74z"/>
	<path class="st0" d="M292.36,79.11V23.54h-16.69V9.65h16.69V1.74h17.37v7.91h23.93v13.89h-23.93v55.57H292.36z"/>
	<path class="st0" d="M354.2,35.41h-17.56v-0.39c0-16.5,13.6-25.86,36.57-25.86c25.66,0,37.05,7.72,37.05,26.34v43.61h-17.27V61.94
		c0,7.14-7.43,17.66-28.85,17.66c-19.78,0-30.68-4.63-30.68-18.23v-0.87c0-20.45,26.44-19.97,59.53-24.7v-0.1
		c0-8.1-4.25-11.96-20.45-11.96c-13.41,0-18.33,3.86-18.33,11.38V35.41z M366.07,68.21c13.7,0,26.92-1.45,26.92-9.36v-9.94
		c-32.13,3.57-42.16,5.31-42.16,11.48v0.39C350.83,65.41,354.49,68.21,366.07,68.21z"/>
	<path class="st0" d="M499.8,47.28v2.03c0,18.72-12.74,30.29-41.2,30.29c-28.94,0-41.29-13.22-41.29-34.93v-0.58
		c0-21.71,12.35-34.93,41.29-34.93c28.46,0,41.2,11.58,41.2,30.29v2.03h-17.37v-0.77c0-11.77-7.53-16.02-24.02-16.02
		c-16.3,0-23.64,4.92-23.64,19.49v0.39c0,14.57,7.33,19.49,23.64,19.49c16.5,0,24.02-4.25,24.02-16.02v-0.77H499.8z"/>
	<path class="st0" d="M518.33,79.11V23.54h-16.69V9.65h16.69V1.74h17.37v7.91h23.93v13.89h-23.93v55.57H518.33z"/>
</g>
</svg>
