<?xml version="1.0" encoding="utf-8"?>
<!-- Generator: Adobe Illustrator 26.5.0, SVG Export Plug-In . SVG Version: 6.00 Build 0)  -->
<svg version="1.1" id="Layer_1" xmlns="http://www.w3.org/2000/svg" xmlns:xlink="http://www.w3.org/1999/xlink" x="0px" y="0px"
	 viewBox="0 0 566.57 118.56" style="enable-background:new 0 0 566.57 118.56;" xml:space="preserve">
<style type="text/css">
	.st0{fill:#ECE9E4;}
</style>
<g>
	<path class="st0" d="M148.59,64.78H95.91v33.58H78.54V19.72h17.37v29.72h52.68V19.72h17.27v78.63h-17.27V64.78z"/>
	<path class="st0" d="M255.2,63.33v0.58c0,21.71-12.16,34.93-41.1,34.93s-41.2-13.22-41.2-34.93v-0.58
		c0-21.71,12.25-34.93,41.2-34.93S255.2,41.63,255.2,63.33z M237.84,63.82v-0.39c0-14.47-7.33-19.49-23.73-19.49
		c-16.4,0-23.73,5.02-23.73,19.49v0.39c0,14.47,7.33,19.49,23.73,19.49C230.5,83.31,237.84,78.29,237.84,63.82z"/>
	<path class="st0" d="M279.62,51.08c0-11.38,6.95-22.67,27.79-22.67c17.85,0,29.14,7.81,31.26,22.67
		c0.96-11.38,8.39-22.67,28.27-22.67c19.97,0,31.65,9.74,31.65,28.08v41.87h-17.37V58.61c0-8.2-4.54-15.15-21.52-15.15
		c-8.68,0-19.59,2.03-20.65,11.77c0,0.39,0,0.87,0,1.25v41.87h-17.37V58.61c0-8.2-4.53-15.15-21.13-15.15
		c-9.55,0-20.94,1.83-20.94,10.71v44.19h-17.37V28.89h17.37V51.08z"/>
	<path class="st0" d="M423.19,68.64c1.35,11.87,8.78,16.02,24.12,16.02c13.41,0,23.16-3.38,23.16-11.96V72.5h17.56v0.19
		c0,14.67-12.06,26.15-41.2,26.15c-28.46,0-41.29-12.35-41.29-33.77V64.3c0-22.87,12.93-35.89,41.39-35.89
		c27.98,0,41.1,11.87,41.1,31.07v9.17H423.19z M423.87,54.84h46.5c-1.54-8.97-9.07-12.64-23.83-12.64
		C433.52,42.2,426.18,45.68,423.87,54.84z"/>
</g>
</svg>
