<?xml version="1.0" encoding="utf-8"?>
<!-- Generator: Adobe Illustrator 26.5.0, SVG Export Plug-In . SVG Version: 6.00 Build 0)  -->
<svg version="1.1" id="Layer_1" xmlns="http://www.w3.org/2000/svg" xmlns:xlink="http://www.w3.org/1999/xlink" x="0px" y="0px"
	 viewBox="0 0 566.57 84.23" style="enable-background:new 0 0 566.57 84.23;" xml:space="preserve">
<style type="text/css">
	.st0{fill:#ECE9E4;}
</style>
<g>
	<path class="st0" d="M17.37,54.61v24.8H0V0.77h44.86c24.99,0,34.73,10.81,34.73,26.53v1.16c0,15.44-9.84,26.15-35.22,26.15H17.37z
		 M17.37,16.21v23.93h26.05c12.45,0,18.14-3.18,18.14-11.87v-0.29c0-8.59-5.69-11.77-18.14-11.77H17.37z"/>
	<path class="st0" d="M130.45,9.46c2.41,0,3.57,0.1,5.11,0.48v17.17c-11.77-2.7-31.84-2.12-31.84,8.88V79.4H86.36V9.94h17.37V32.8
		C103.72,20.84,110.67,9.46,130.45,9.46z"/>
	<path class="st0" d="M220.08,44.38v0.58c0,21.71-12.16,34.93-41.1,34.93s-41.2-13.22-41.2-34.93v-0.58
		c0-21.71,12.25-34.93,41.2-34.93S220.08,22.67,220.08,44.38z M202.71,44.86v-0.39c0-14.47-7.33-19.49-23.73-19.49
		c-16.4,0-23.73,5.02-23.73,19.49v0.39c0,14.47,7.33,19.49,23.73,19.49C195.38,64.35,202.71,59.34,202.71,44.86z"/>
	<path class="st0" d="M229.64,84.23h-5.11V70.33h0.48c1.45,0,2.41-1.06,2.41-3.09V9.94h17.37v60.3
		C244.79,79.5,239.19,84.23,229.64,84.23z M227.32,0h17.37v7.53h-17.37V0z"/>
	<path class="st0" d="M269.39,49.69c1.35,11.87,8.78,16.02,24.12,16.02c13.41,0,23.15-3.38,23.15-11.96v-0.19h17.56v0.19
		c0,14.67-12.06,26.15-41.2,26.15c-28.46,0-41.29-12.35-41.29-33.77v-0.77c0-22.87,12.93-35.89,41.39-35.89
		c27.98,0,41.1,11.87,41.1,31.07v9.17H269.39z M270.07,35.89h46.5c-1.54-8.97-9.07-12.64-23.83-12.64
		C279.71,23.25,272.38,26.73,270.07,35.89z"/>
	<path class="st0" d="M423.48,47.57v2.03c0,18.72-12.74,30.29-41.2,30.29c-28.94,0-41.29-13.22-41.29-34.93v-0.58
		c0-21.71,12.35-34.93,41.29-34.93c28.46,0,41.2,11.58,41.2,30.29v2.03h-17.37V41c0-11.77-7.53-16.02-24.02-16.02
		c-16.3,0-23.64,4.92-23.64,19.49v0.39c0,14.57,7.33,19.49,23.64,19.49c16.5,0,24.02-4.25,24.02-16.02v-0.77H423.48z"/>
	<path class="st0" d="M442.01,79.4V23.83h-16.69V9.94h16.69V2.03h17.37v7.91h23.93v13.89h-23.93V79.4H442.01z"/>
	<path class="st0" d="M527.2,79.89c-27.02,0-39.46-7.81-39.46-23.83v-0.39h16.79v1.16c0,7.04,4.82,10.81,22.87,10.81
		c17.66,0,22.38-2.6,22.38-8.01v-0.39c0-5.5-4.44-7.91-21.42-7.91c-30.2,0-40.62-4.34-40.62-19.68v-0.39
		c0-14.18,12.83-21.8,39.46-21.8c26.05,0,38.98,9.17,38.98,24.02v0.77h-16.69V32.9c0-7.24-6.08-11.19-22.67-11.19
		c-17.56,0-22.58,3.67-22.58,8.3v0.29c0,4.63,3.28,6.95,22.77,6.95c30.68,0,39.56,5.5,39.56,20.36v0.77
		C566.57,70.91,555.76,79.89,527.2,79.89z"/>
</g>
</svg>
