<?xml version="1.0" encoding="utf-8"?>
<!-- Generator: Adobe Illustrator 26.5.0, SVG Export Plug-In . SVG Version: 6.00 Build 0)  -->
<svg version="1.1" id="Layer_1" xmlns="http://www.w3.org/2000/svg" xmlns:xlink="http://www.w3.org/1999/xlink" x="0px" y="0px"
	 viewBox="0 0 781.98 91.27" style="enable-background:new 0 0 781.98 91.27;" xml:space="preserve">
<style type="text/css">
	.st0{fill:#ECE9E4;}
</style>
<g>
	<path class="st0" d="M71.97,79.76c-6.83,5.15-15.8,7.78-26.82,7.78c-16.76,0-29.09-5.74-37-17.36c-4.79-7.18-6.7-14.37-6.7-25.98
		c0-9.22,3.71-19.99,9.46-26.7C18.58,8.4,29.95,3.61,44.67,3.61c15.68,0,27.42,4.79,35.2,14.25c4.19,5.15,6.11,9.82,6.46,16.16
		H74.25c-0.84-4.19-2.16-7.06-4.91-10.3c-5.63-6.71-12.81-9.82-23.83-9.82c-9.7,0-17.24,2.87-22.75,8.5
		c-5.63,5.87-8.98,14.61-8.98,23.35c0,10.78,3.47,18.92,10.3,24.42c5.63,4.67,13.41,7.31,21.43,7.31c14.85,0,25.02-7.78,28.74-22.03
		l12.09,0.12C85.26,64.79,80.11,73.65,71.97,79.76z"/>
	<path class="st0" d="M103.94,5.77l-0.12,31.49c5.39-8.14,12.81-11.49,24.3-11.49c14.49,0,22.99,7.54,22.99,20.47v39.39h-10.54V50.9
		c0-10.9-5.63-16.28-16.76-16.28c-10.66,0-19.99,7.42-19.99,16.04v34.96H93.29V5.77H103.94z"/>
	<path class="st0" d="M171.47,27.68v10.65c5.63-8.98,11.73-12.69,20.47-12.69c1.56,0,2.64,0,4.91,0.36v10.3
		c-2.75-0.48-4.19-0.6-6.47-0.6c-7.78,0-13.65,2.99-16.64,8.62c-1.32,2.28-2.27,6.71-2.27,9.22v32.09h-10.53V27.68H171.47z"/>
	<path class="st0" d="M211.93,5.77v10.9h-10.54V5.77H211.93z M211.93,27.68v57.95h-10.54V27.68H211.93z"/>
	<path class="st0" d="M232.96,74.61c3.35,2.99,9.34,4.55,16.88,4.55c11.49,0,17.6-3.23,17.6-9.34c0-3.35-1.68-5.15-5.87-6.47
		c-0.84-0.36-1.68-0.36-4.43-0.96l-8.62-1.44l-2.87-0.48L242.65,60c-10.06-1.56-12.57-2.4-16.04-4.91
		c-3.71-2.51-5.74-6.7-5.74-11.13c0-5.75,3.71-11.73,9.34-14.49c5.03-2.75,10.42-3.59,19.64-3.59c4.43,0,10.3,0.72,13.77,2.04
		c7.54,2.75,12.21,8.62,13.53,16.76h-10.77c-1.2-3.23-2.75-5.63-4.67-7.18c-1.8-1.32-4.43-2.15-7.9-2.64
		c-1.8-0.36-4.31-0.36-5.27-0.36c-7.18,0-9.34,0.24-12.57,2.15c-2.4,1.44-4.07,3.71-4.07,5.99c0,2.51,1.08,4.19,3.35,5.15
		c2.39,0.96,3.11,1.08,13.77,2.99c14.73,2.51,18.2,3.23,21.67,5.15c5.27,2.99,7.9,7.3,7.9,12.93c0,6.11-3.35,11.49-9.1,14.73
		c-5.27,2.99-10.9,4.07-20.35,4.07c-11.97,0-20.83-2.64-25.98-7.9c-3.23-3.35-4.43-6.83-4.79-12.69l10.78-0.12
		C229.96,70.66,230.92,72.81,232.96,74.61z"/>
	<path class="st0" d="M321.33,70.42c3.71,5.27,11.25,7.9,22.51,7.9c15.21,0,23.83-5.51,23.83-15.44c0-2.51-0.96-4.79-2.75-6.58
		c-2.75-2.4-10.66-4.67-20.11-5.63c-6.7-0.6-14.01-1.68-18.68-2.75c-12.09-2.87-18.08-9.34-18.08-19.51
		c0-8.62,4.31-16.04,11.49-19.99c6.47-3.23,12.09-4.55,22.75-4.55c13.41,0,21.19,2.52,26.82,8.14c3.71,4.19,5.63,8.38,6.11,14.49
		l-11.02,0.12c-0.6-3.23-1.2-4.79-2.75-6.58c-3.71-4.31-10.77-6.83-20.35-6.83c-12.93,0-21.43,5.51-21.43,14.13
		c0,2.39,0.84,4.79,2.63,6.34c2.28,2.27,9.82,4.55,19.04,5.39c4.91,0.6,14.37,1.68,19.76,2.99c6.11,1.32,9.46,2.75,12.45,5.75
		c3.71,3.47,5.63,8.74,5.63,14.37c0,8.62-4.43,16.64-11.61,20.59c-5.27,2.99-15.32,4.91-24.9,4.91c-14.85,0-23.47-2.51-29.57-9.22
		c-4.19-4.67-5.99-9.7-6.35-17.24h11.37C318.93,66.11,319.53,68.03,321.33,70.42z"/>
	<path class="st0" d="M397.31,5.77v10.9h-10.54V5.77H397.31z M397.31,27.68v57.95h-10.54V27.68H397.31z"/>
	<path class="st0" d="M473.78,56.41c0,18.32-14.25,31.13-34.6,31.13c-11.02,0-20.12-3.23-26.46-9.94
		c-4.91-4.91-8.38-12.93-8.38-19.99c0-19.15,14.01-31.84,34.72-31.84C459.17,25.76,473.78,38.57,473.78,56.41z M415.47,57.37
		c0,3.83,1.8,9.1,4.19,12.45c4.19,5.74,11.02,8.98,19.52,8.98c13.77,0,23.47-9.1,23.47-22.03c0-13.05-9.7-22.15-23.59-22.15
		C424.81,34.62,415.47,43.6,415.47,57.37z"/>
	<path class="st0" d="M503.57,87.54c-9.1,0-16.76-3.47-20.11-9.1c-1.8-3.23-2.76-7.18-2.76-11.38V27.68h10.54V62.4
		c0,10.89,5.63,16.28,16.88,16.28c11.02,0,19.88-7.18,19.88-15.92V27.68h10.53v57.95h-10.53v-9.58
		C522.84,83.71,514.7,87.54,503.57,87.54z"/>
	<path class="st0" d="M558.97,27.68v9.58c5.39-8.14,12.69-11.49,24.54-11.49c8.02,0,14.72,2.75,18.2,7.06
		c2.87,3.47,4.55,8.26,4.55,13.41v39.39h-10.54V50.9c0-10.9-5.63-16.28-16.76-16.28c-10.89,0-19.99,7.3-19.99,16.04v34.96h-10.54
		V27.68H558.97z"/>
	<path class="st0" d="M620.19,27.68V11.04h10.53v16.64h13.77v8.5h-13.77v32.57c0,7.06,0.72,8.5,9.46,8.5c1.32,0,2.64-0.12,4.19-0.12
		v8.38c-2.51,0.36-4.91,0.24-7.18,0.24c-1.8,0-3.59,0-5.15-0.12c-7.9-0.48-11.85-4.43-11.85-11.97V36.18h-9.94v-8.5H620.19z"/>
	<path class="st0" d="M710.41,85.26c-7.66,0-10.65-2.64-11.49-9.82c-4.67,7.66-14.85,12.09-27.41,12.09
		c-15.45,0-23.71-6.34-23.71-18.32c0-4.91,2.76-9.58,7.42-12.45c2.16-1.44,4.19-2.4,6.11-2.87c6.11-1.67,14.96-2.99,26.58-3.95
		c7.54-0.6,10.06-2.39,10.06-6.58c0-5.99-5.15-8.98-15.56-8.98c-14.25,0-19.76,2.75-22.03,10.9h-10.42
		c0.6-5.87,3.23-10.66,7.9-14.25c5.15-3.71,12.33-5.15,24.78-5.15c7.06,0,14.25,1.44,18.92,3.83c5.38,2.87,7.66,7.9,7.66,19.51v18.2
		c0,8.26,1.08,9.34,8.62,9.34v7.9C714.36,85.02,712.32,85.26,710.41,85.26z M677.96,59.28c-8.14,0.6-14.61,2.75-16.88,5.63
		c-0.96,1.44-1.67,3.35-1.67,5.15c0,5.74,4.91,8.98,13.53,8.98c8.74,0,17.6-3.23,21.91-8.14c2.51-2.99,3.83-6.46,3.83-10.42v-5.51
		C694.24,57.25,687.54,58.68,677.96,59.28z"/>
	<path class="st0" d="M734.91,74.61c3.35,2.99,9.34,4.55,16.88,4.55c11.49,0,17.6-3.23,17.6-9.34c0-3.35-1.68-5.15-5.87-6.47
		c-0.84-0.36-1.67-0.36-4.43-0.96l-8.62-1.44l-2.87-0.48L744.61,60c-10.06-1.56-12.57-2.4-16.04-4.91
		c-3.71-2.51-5.75-6.7-5.75-11.13c0-5.75,3.71-11.73,9.34-14.49c5.03-2.75,10.42-3.59,19.63-3.59c4.43,0,10.29,0.72,13.77,2.04
		c7.54,2.75,12.21,8.62,13.53,16.76h-10.78c-1.2-3.23-2.75-5.63-4.67-7.18c-1.79-1.32-4.43-2.15-7.9-2.64
		c-1.8-0.36-4.31-0.36-5.27-0.36c-7.18,0-9.34,0.24-12.57,2.15c-2.4,1.44-4.07,3.71-4.07,5.99c0,2.51,1.08,4.19,3.35,5.15
		c2.39,0.96,3.11,1.08,13.77,2.99c14.72,2.51,18.2,3.23,21.67,5.15c5.27,2.99,7.9,7.3,7.9,12.93c0,6.11-3.35,11.49-9.1,14.73
		c-5.27,2.99-10.9,4.07-20.35,4.07c-11.98,0-20.83-2.64-25.98-7.9c-3.23-3.35-4.43-6.83-4.79-12.69l10.78-0.12
		C731.92,70.66,732.88,72.81,734.91,74.61z"/>
</g>
</svg>
