<?xml version="1.0" encoding="utf-8"?>
<!-- Generator: Adobe Illustrator 26.5.0, SVG Export Plug-In . SVG Version: 6.00 Build 0)  -->
<svg version="1.1" id="Layer_1" xmlns="http://www.w3.org/2000/svg" xmlns:xlink="http://www.w3.org/1999/xlink" x="0px" y="0px"
	 viewBox="0 0 51.02 51.01" style="enable-background:new 0 0 51.02 51.01;" xml:space="preserve">
<style type="text/css">
	.st0{fill:#ECE9E4;}
	.st1{fill:#1A1A1A;}
</style>
<g>
	<path class="st0" d="M9.58,0h31.85c5.27,0,9.58,4.31,9.58,9.58v31.85c0,5.27-4.31,9.58-9.58,9.58H9.58C4.31,51.01,0,46.7,0,41.43
		V9.58C0,4.31,4.31,0,9.58,0z"/>
	<g>
		<g>
			<g>
				<g>
					<path class="st1" d="M22.53,24.51c0.85-0.4,1.48-0.92,1.92-1.55c0.43-0.63,0.64-1.42,0.64-2.37c0-0.87-0.14-1.61-0.43-2.2
						c-0.29-0.6-0.7-1.07-1.23-1.43c-0.53-0.36-1.16-0.62-1.9-0.77c-0.74-0.16-1.55-0.24-2.45-0.24h-8.85v18.77h9.1
						c0.84,0,1.66-0.11,2.45-0.32c0.8-0.21,1.51-0.53,2.14-0.97c0.62-0.44,1.12-1,1.48-1.7c0.36-0.69,0.55-1.51,0.55-2.46
						c0-1.17-0.28-2.18-0.85-3.01C24.55,25.42,23.69,24.84,22.53,24.51z M14.38,19.14h3.87c0.37,0,0.72,0.03,1.06,0.09
						c0.35,0.06,0.65,0.17,0.91,0.33c0.27,0.15,0.48,0.37,0.64,0.65c0.15,0.28,0.23,0.64,0.23,1.08c0,0.79-0.23,1.36-0.71,1.71
						c-0.48,0.35-1.09,0.53-1.82,0.53h-4.18V19.14z M21.59,30.26c-0.17,0.32-0.4,0.57-0.67,0.75c-0.28,0.19-0.6,0.32-0.97,0.4
						c-0.36,0.08-0.75,0.12-1.16,0.12h-4.41v-5.17h4.49c0.89,0,1.61,0.2,2.16,0.62c0.54,0.42,0.81,1.1,0.81,2.07
						C21.84,29.53,21.76,29.94,21.59,30.26z"/>
				</g>
			</g>
			<g>
				<g>
					<path class="st1" d="M40.48,25.79c-0.25-0.97-0.64-1.83-1.19-2.58c-0.55-0.75-1.26-1.36-2.12-1.8
						c-0.86-0.45-1.87-0.67-3.02-0.67c-1.04,0-1.98,0.19-2.83,0.55c-0.85,0.37-1.59,0.87-2.2,1.52c-0.62,0.64-1.08,1.4-1.42,2.28
						c-0.33,0.88-0.5,1.83-0.5,2.84c0,1.05,0.16,2.02,0.49,2.9c0.33,0.88,0.79,1.63,1.38,2.27c0.61,0.63,1.33,1.12,2.2,1.46
						c0.87,0.34,1.83,0.51,2.9,0.51c1.54,0,2.86-0.35,3.94-1.06c1.09-0.7,1.9-1.87,2.42-3.51h-3.29c-0.13,0.42-0.46,0.83-1,1.21
						c-0.55,0.38-1.2,0.57-1.95,0.57c-1.05,0-1.86-0.27-2.41-0.82c-0.56-0.55-0.92-1.56-0.92-2.64h9.81
						C40.81,27.77,40.72,26.76,40.48,25.79z M30.93,26.47c0.02-0.27,0.07-0.57,0.17-0.9c0.1-0.34,0.26-0.66,0.5-0.96
						c0.24-0.3,0.56-0.55,0.95-0.75c0.4-0.2,0.89-0.3,1.49-0.3c0.92,0,1.67,0.27,2.11,0.76c0.45,0.49,0.77,1.2,0.86,2.15H30.93z"/>
				</g>
			</g>
			<g>
				<rect x="30.17" y="17.2" class="st1" width="7.61" height="1.85"/>
			</g>
		</g>
	</g>
</g>
</svg>
