<?xml version="1.0" encoding="utf-8"?>
<!-- Generator: Adobe Illustrator 26.5.0, SVG Export Plug-In . SVG Version: 6.00 Build 0)  -->
<svg version="1.1" id="Layer_1" xmlns="http://www.w3.org/2000/svg" xmlns:xlink="http://www.w3.org/1999/xlink" x="0px" y="0px"
	 viewBox="0 0 51.02 51.01" style="enable-background:new 0 0 51.02 51.01;" xml:space="preserve">
<style type="text/css">
	.st0{fill:#ECE9E4;}
	.st1{fill:#1A1A1A;}
</style>
<g>
	<path class="st0" d="M9.58,0h31.85c5.27,0,9.58,4.31,9.58,9.58v31.85c0,5.27-4.31,9.58-9.58,9.58H9.58C4.31,51.01,0,46.7,0,41.43
		V9.58C0,4.31,4.31,0,9.58,0z"/>
	<path class="st1" d="M36.18,14.96c-2.82-2.82-6.56-4.37-10.55-4.37c-3.98,0-7.73,1.55-10.55,4.37c-2.82,2.82-4.37,6.56-4.37,10.55
		c0,3.98,1.55,7.73,4.37,10.55c2.82,2.82,6.56,4.37,10.55,4.37c3.98,0,7.73-1.55,10.55-4.37c2.82-2.82,4.37-6.56,4.37-10.55
		C40.55,21.52,39,17.78,36.18,14.96z M29.54,24.83c-0.32-0.75-0.66-1.5-1.01-2.23c0.49-0.19,0.95-0.39,1.4-0.6
		c2.37-1.11,4.26-2.5,5.63-4.14c1.58,2.04,2.54,4.58,2.61,7.34C35.13,24.52,32.24,24.4,29.54,24.83z M33.92,16.11
		c-1.56,1.98-3.89,3.38-6.48,4.37c-0.32-0.6-0.65-1.2-1-1.78c-1.39-2.38-2.71-4.21-3.63-5.41c0.91-0.21,1.85-0.32,2.82-0.32
		C28.81,12.97,31.71,14.16,33.92,16.11z M20.43,14.1c0.84,1.04,2.35,3.02,3.97,5.79c0.25,0.42,0.5,0.87,0.76,1.34
		c-4.52,1.29-9.29,1.55-11.77,1.59C14.24,18.94,16.89,15.72,20.43,14.1z M13.1,25.51c0-0.1,0-0.2,0-0.3
		c1.81-0.01,5.03-0.14,8.58-0.76c1.63-0.28,3.16-0.64,4.58-1.07c0.31,0.63,0.61,1.29,0.91,1.98c-2.28,0.67-4.4,1.77-6.31,3.28
		c-2.26,1.78-3.77,3.77-4.64,5.14C14.28,31.58,13.1,28.68,13.1,25.51z M18,35.44c0.7-1.16,2.1-3.16,4.34-4.93
		c1.75-1.38,3.67-2.37,5.74-2.94c1.06,2.78,1.99,5.96,2.55,9.44c-1.53,0.67-3.21,1.03-4.98,1.03C22.76,38.05,20.11,37.07,18,35.44z
		 M32.82,35.78c-0.52-2.92-1.32-5.83-2.38-8.68c2.35-0.3,4.87-0.14,7.56,0.5C37.43,30.96,35.51,33.89,32.82,35.78z"/>
</g>
</svg>
