<?xml version="1.0" encoding="utf-8"?>
<!-- Generator: Adobe Illustrator 26.5.0, SVG Export Plug-In . SVG Version: 6.00 Build 0)  -->
<svg version="1.1" id="Layer_1" xmlns="http://www.w3.org/2000/svg" xmlns:xlink="http://www.w3.org/1999/xlink" x="0px" y="0px"
	 viewBox="0 0 51.02 51.01" style="enable-background:new 0 0 51.02 51.01;" xml:space="preserve">
<style type="text/css">
	.st0{fill:#ECE9E4;}
	.st1{fill:#1A1A1A;}
</style>
<g>
	<path class="st0" d="M9.58,0h31.85c5.27,0,9.58,4.31,9.58,9.58v31.85c0,5.27-4.31,9.58-9.58,9.58H9.58C4.31,51.01,0,46.7,0,41.43
		V9.58C0,4.31,4.31,0,9.58,0z"/>
	<g>
		<g>
			<path class="st1" d="M14.94,11.93c-1.88,0-3.41,1.52-3.41,3.41c0,1.88,1.52,3.41,3.41,3.41s3.41-1.52,3.41-3.41
				C18.35,13.45,16.82,11.93,14.94,11.93z"/>
			<rect x="11.87" y="21.02" class="st1" width="6.15" height="18.72"/>
			<path class="st1" d="M32.64,20.58c-2.37,0-4.03,1.13-5.19,2.57v-2.13h-6.15v18.72h6.15V28.77c0.17-2.36,1.85-2.97,3.04-2.97
				c1.26,0,2.84,0.61,2.84,4.05v9.89h6.15v-9.89v-3.3C39.48,26.55,39.2,20.58,32.64,20.58z"/>
		</g>
	</g>
</g>
</svg>
